<svg style="display: none;" aria-hidden="true" xmlns="http://www.w3.org/2000/svg" xmlns:xlink="http://www.w3.org/1999/xlink"><symbol viewBox="0 0 21 24" fill="none" id="c1" xmlns="http://www.w3.org/2000/svg">
<path d="M18.1406 13.8281L17.3906 10.5938C17.0625 9.23438 15.8906 8.25 14.4844 8.25H6.375C4.96875 8.25 3.75 9.23438 3.42188 10.5938L2.67188 13.9219C1.54688 14.4844 0.75 15.6562 0.75 17.0156V19.5938C0.75 20.5312 1.35938 21.375 2.25 21.6562V23.25C2.25 23.6719 2.57812 24 3 24C3.375 24 3.75 23.6719 3.75 23.25V21.75H17.25V23.25C17.25 23.6719 17.5781 24 18 24C18.375 24 18.75 23.6719 18.75 23.25V21.6562C19.6406 21.375 20.2031 20.5312 20.25 19.5938V17.0156C20.25 15.6562 19.4062 14.3906 18.1406 13.8281ZM4.875 10.9219C5.0625 10.2656 5.67188 9.75 6.375 9.75H14.4844C15.1875 9.75 15.7969 10.2656 15.9375 10.9219L16.5469 13.5H4.3125L4.875 10.9219ZM18.75 19.5938C18.75 19.9688 18.4219 20.25 18.0469 20.25H2.90625C2.53125 20.25 2.25 19.9688 2.25 19.5938V17.0156C2.25 15.9375 3.14062 15 4.21875 15H16.7344C17.8125 15 18.75 15.9375 18.75 17.0156V19.5938ZM15.75 16.5C15.0938 16.5 14.625 17.0156 14.625 17.625C14.625 18.2812 15.0938 18.75 15.75 18.75C16.3594 18.75 16.875 18.2812 16.875 17.625C16.875 17.0156 16.3594 16.5 15.75 16.5ZM5.25 16.5C4.59375 16.5 4.125 17.0156 4.125 17.625C4.125 18.2812 4.59375 18.75 5.25 18.75C5.85938 18.75 6.375 18.2812 6.375 17.625C6.375 17.0156 5.85938 16.5 5.25 16.5ZM3.75 7.5C4.96875 7.5 6.04688 6.9375 6.70312 6.04688H14.25C14.9062 6.9375 15.9844 7.5 17.25 7.5C19.3125 7.5 21 5.85938 21 3.75C21 1.6875 19.3125 0 17.25 0C15.9844 0 14.9062 0.609375 14.25 1.54688H6.70312C6.04688 0.609375 4.96875 0 3.75 0C1.64062 0 0 1.6875 0 3.75C0 5.85938 1.64062 7.5 3.75 7.5ZM1.59375 3C1.92188 2.15625 2.76562 1.5 3.75 1.5C4.40625 1.5 5.0625 1.875 5.53125 2.4375C5.8125 2.8125 6.23438 3.04688 6.70312 3.04688H14.25C14.7188 3.04688 15.1406 2.8125 15.4219 2.4375C15.8906 1.875 16.5469 1.5 17.25 1.5C18.1875 1.5 19.0312 2.15625 19.3594 3H17.25V4.5H19.3594C19.0312 5.39062 18.1875 6 17.25 6C16.5469 6 15.8906 5.67188 15.4219 5.10938C15.1406 4.73438 14.7188 4.54688 14.25 4.54688H6.70312C6.23438 4.54688 5.8125 4.73438 5.53125 5.10938C5.0625 5.67188 4.40625 6 3.75 6C2.76562 6 1.92188 5.39062 1.59375 4.5H3.75V3H1.59375Z" fill="#5C8EE6"/>
</symbol><symbol viewBox="0 0 20 24" fill="none" id="c10" xmlns="http://www.w3.org/2000/svg">
<path d="M9.27428 0.609375C9.18053 0.234375 8.80553 -0.046875 8.38366 0.046875C7.96178 0.140625 7.72741 0.515625 7.82116 0.9375L8.89928 6.32812C9.32116 8.57812 8.52428 10.2188 6.50866 11.1094L6.03991 11.2969L6.46178 21.8906C6.46178 22.0781 6.41491 22.2656 6.27428 22.3594C6.22741 22.4531 6.13366 22.5 5.99303 22.5H4.58678C4.44616 22.5 4.35241 22.4531 4.25866 22.3594C4.16491 22.2656 4.07116 22.0781 4.07116 21.9375L4.49303 11.2969L4.02428 11.1094C2.00866 10.1719 1.21178 8.57812 1.63366 6.375L2.75866 0.9375C2.80553 0.515625 2.57116 0.140625 2.14928 0.046875C1.77428 -0.046875 1.35241 0.234375 1.25866 0.609375L0.133657 6.09375C-0.381968 8.8125 0.602407 10.9688 2.94616 12.2344L2.57116 21.8906C2.57116 22.4062 2.75866 22.9688 3.13366 23.3906C3.50866 23.8125 4.02428 24 4.58678 24H5.99303C6.55553 24 7.02428 23.8125 7.39928 23.3906C7.77428 22.9688 7.96178 22.4062 7.96178 21.8438L7.58678 12.2344C9.88366 11.0156 10.9149 8.76562 10.3993 6.04688L9.27428 0.609375ZM17.8524 0C16.3524 0 13.8212 2.0625 12.6962 4.73438C11.8993 6.60938 11.1024 10.3125 14.7587 14.2969L14.4305 21.75C14.3837 22.4062 14.618 23.0156 15.0399 23.4375C15.4149 23.8125 15.8837 24 16.3524 24H17.5712C18.6493 24 19.5399 23.0625 19.5399 21.8438V1.82812C19.5399 0.84375 18.7899 0 17.8524 0ZM18.0399 21.8438C18.0399 22.2656 17.7587 22.5 17.5712 22.5H16.3524C16.2587 22.5 16.1649 22.4531 16.118 22.4062C15.9774 22.2656 15.9305 22.0312 15.9305 21.8438L16.3055 13.7344L16.0712 13.5C12.9305 10.2188 13.2587 7.26562 14.0555 5.34375C15.1337 2.85938 17.243 1.5 17.8524 1.5C17.8993 1.5 18.0399 1.64062 18.0399 1.82812V21.8438ZM3.74303 8.25C3.74303 8.25 3.74303 8.25 3.78991 8.25C4.16491 8.25 4.49303 7.96875 4.49303 7.54688L4.86803 0.796875C4.91491 0.421875 4.58678 0.046875 4.16491 0.046875C3.78991 0 3.41491 0.328125 3.41491 0.75L3.03991 7.5C2.99303 7.875 3.32116 8.25 3.74303 8.25ZM6.78991 8.25C7.21178 8.25 7.53991 7.875 7.49303 7.5L7.11803 0.75C7.11803 0.328125 6.78991 0 6.36803 0.046875C5.94616 0.046875 5.61803 0.421875 5.66491 0.796875L6.03991 7.54688C6.03991 7.96875 6.36803 8.25 6.78991 8.25Z" fill="#5C8EE6"/>
</symbol><symbol viewBox="0 0 30 24" fill="none" id="c2" xmlns="http://www.w3.org/2000/svg">
<path d="M29.8813 5.54898C29.6938 4.98648 29.3188 4.56461 28.8032 4.28336L20.5063 0.0646075C20.1782 -0.0760175 19.8032 0.0177325 19.5688 0.298983C18.8188 1.37711 16.9438 2.08023 14.9751 2.08023C13.0532 2.08023 11.1782 1.37711 10.4282 0.298983C10.1938 0.0177325 9.81882 -0.0760175 9.4907 0.0646075L1.19382 4.28336C0.678196 4.56461 0.303196 4.98648 0.115696 5.54898C-0.0718041 6.11148 -0.0249291 6.67398 0.209446 7.18961L2.50632 11.924C3.02195 12.9552 4.33445 13.3771 5.3657 12.9084L7.52195 11.9709V21.8146C7.52195 23.0334 8.45945 23.9709 9.6782 23.9709H20.3188C21.5376 23.9709 22.5219 23.0334 22.5219 21.8146L22.4751 11.9709L24.5844 12.8615C25.6626 13.3771 26.9751 12.9552 27.4907 11.8771L29.7876 7.18961C30.0219 6.67398 30.0688 6.11148 29.8813 5.54898ZM28.4282 6.53336L26.1782 11.2209C25.9907 11.549 25.5688 11.6896 25.2407 11.5021L22.0532 10.1427C21.8188 10.049 21.5376 10.0959 21.3501 10.2365C21.1157 10.3771 20.9751 10.6115 20.9751 10.8459L21.0219 21.8146C21.0219 22.1896 20.6938 22.4709 20.3188 22.4709H9.6782C9.3032 22.4709 9.02195 22.1896 9.02195 21.8146V10.8459C9.02195 10.6115 8.88132 10.3771 8.64695 10.2365C8.5532 10.1427 8.41257 10.0959 8.27195 10.0959C8.13132 10.0959 8.03757 10.1427 7.94382 10.1427L4.75632 11.5021C4.4282 11.6896 4.00632 11.549 3.8657 11.2209L1.56882 6.53336C1.47507 6.34586 1.47507 6.20523 1.52195 6.01773C1.56882 5.87711 1.70945 5.73648 1.89695 5.64273L9.63132 1.65836C10.8032 2.87711 12.8188 3.58023 15.0219 3.58023C17.2251 3.58023 19.1938 2.87711 20.3657 1.65836L28.1001 5.64273C28.2876 5.73648 28.4282 5.87711 28.4751 6.01773C28.5219 6.20523 28.5219 6.34586 28.4282 6.53336Z" fill="#5C8EE6"/>
</symbol><symbol viewBox="0 0 30 24" fill="none" id="c3" xmlns="http://www.w3.org/2000/svg">
<path d="M15.7969 12.75C14.1562 12.75 12.2344 13.4062 10.875 14.3906C9.75 15.1875 8.8125 15.9844 6 15.9844H3C1.3125 15.9844 0 17.4375 0 19.2188C0 20.9531 1.3125 22.5 3 22.5H6L8.67188 23.2031C10.1719 23.6719 11.7188 24 13.7344 24C18.8906 24 24 21.4219 24 17.5781C24 14.3906 20.0156 12.75 15.7969 12.75ZM5.25 21H3C2.20312 21 1.5 20.1562 1.5 19.2188C1.5 18.2344 2.15625 17.4844 3 17.4844H5.25V21ZM9.04688 21.75L6.75 21.1875V17.4375C9.32812 17.2969 10.5 16.5 11.5781 15.75C15.8438 12.7031 22.5 14.8594 22.5 17.5781C22.5 20.4844 16.7812 24.0469 9.04688 21.75ZM19.7344 0C17.6719 0 16.1719 0.375 14.6719 0.84375L12 1.5H9C7.3125 1.5 6 3.04688 6 4.82812C6 6.65625 7.3125 8.0625 9 8.0625H12C14.8125 8.0625 15.75 8.85938 16.875 9.65625C18.2344 10.5938 20.1562 11.25 21.7969 11.25C26.0156 11.25 30 9.65625 30 6.46875C30 2.625 24.9844 0 19.7344 0ZM11.25 6.5625H9C8.15625 6.5625 7.5 5.8125 7.5 4.82812C7.5 3.89062 8.20312 3 9 3H11.25V6.5625ZM21.7969 9.75C20.4844 9.75 18.8906 9.1875 17.7656 8.39062C16.6406 7.64062 15.4688 6.75 12.75 6.5625V2.85938L15.0938 2.25C16.5 1.875 17.8594 1.5 19.7344 1.5C22.1719 1.5 28.5 2.71875 28.5 6.46875C28.5 8.625 25.125 9.75 21.7969 9.75Z" fill="#5C8EE6"/>
</symbol><symbol viewBox="0 0 21 22" fill="none" id="c4" xmlns="http://www.w3.org/2000/svg">
<path d="M19.5 0H1.5C0.65625 0 0 0.703125 0 1.5V4.5C0 5.34375 0.65625 6 1.5 6V20.25C1.5 20.625 1.73438 20.9531 2.10938 21C2.57812 21.0938 3 20.7188 3 20.25V18H13.5V20.25C13.5 20.6719 13.8281 21 14.2031 21C14.5781 21 15 20.6719 15 20.25V18H18V20.25C18 20.625 18.2344 20.9531 18.6094 21C19.0781 21.0938 19.5 20.7188 19.5 20.25V6C20.2969 6 21 5.34375 21 4.5V1.5C21 0.703125 20.2969 0 19.5 0ZM6 10.5H3V6H6V10.5ZM3 16.5V12H9V16.5H3ZM18 16.5H10.5V12H18V16.5ZM18 10.5H7.5V6H18V10.5ZM19.5 4.5H1.5V1.5H19.5V4.5Z" fill="#5C8EE6"/>
</symbol><symbol viewBox="0 0 18 3" fill="none" id="c5" xmlns="http://www.w3.org/2000/svg">
<path d="M9 0C8.15625 0 7.5 0.703125 7.5 1.5C7.5 2.34375 8.15625 3 9 3C9.79688 3 10.5 2.34375 10.5 1.5C10.5 0.703125 9.79688 0 9 0ZM1.5 0C0.65625 0 0 0.703125 0 1.5C0 2.34375 0.65625 3 1.5 3C2.29688 3 3 2.34375 3 1.5C3 0.703125 2.29688 0 1.5 0ZM16.5 0C15.6562 0 15 0.703125 15 1.5C15 2.34375 15.6562 3 16.5 3C17.2969 3 18 2.34375 18 1.5C18 0.703125 17.2969 0 16.5 0Z" fill="#5C8EE6"/>
</symbol><symbol viewBox="0 0 24 24" fill="none" id="c6" xmlns="http://www.w3.org/2000/svg">
<path d="M19.3393 9.375L16.6675 12H7.24558L14.6518 4.64062C14.9331 4.35938 14.9331 3.89062 14.6518 3.60938C14.3706 3.28125 13.855 3.28125 13.5737 3.60938L1.52683 15.6094C-0.254416 17.4375 -0.582541 20.3906 1.10496 22.3594C2.08933 23.4375 3.40183 24 4.76121 24C6.02683 24 7.24558 23.5312 8.18308 22.5938L20.4175 10.4062C20.6987 10.125 20.6987 9.65625 20.4175 9.375C20.1362 9.04688 19.6206 9.04688 19.3393 9.375ZM7.15183 21.5625C6.49558 22.1719 5.65183 22.5 4.76121 22.5C3.77683 22.5 2.88621 22.0781 2.22996 21.375C1.10496 20.0625 1.29246 18 2.60496 16.6875L5.74558 13.5H15.1675L7.15183 21.5625ZM23.7925 8.48438L15.5425 0.234375C15.4018 0.09375 15.2143 0 15.0268 0C14.7925 0 14.605 0.09375 14.4643 0.234375C14.1831 0.515625 14.1831 1.03125 14.4643 1.3125L22.7143 9.5625C22.855 9.70312 23.0425 9.75 23.2768 9.75C23.4643 9.75 23.6518 9.70312 23.7925 9.5625C24.0737 9.28125 24.0737 8.76562 23.7925 8.48438Z" fill="#5C8EE6"/>
</symbol><symbol viewBox="0 0 20 24" fill="none" id="c7" xmlns="http://www.w3.org/2000/svg">
<path d="M9.75 5.95312C10.9688 5.95312 12 4.92188 12 3.70312C12 2.71875 10.8281 0.9375 10.3594 0.234375C10.2188 0.09375 9.98438 0 9.75 0C9.46875 0 9.23438 0.09375 9.09375 0.28125C8.625 0.984375 7.5 2.76562 7.5 3.70312C7.5 4.96875 8.48438 5.95312 9.75 5.95312ZM9.75 2.10938C10.1719 2.85938 10.4531 3.51562 10.5 3.70312C10.5 4.125 10.125 4.45312 9.75 4.45312C9.32812 4.45312 9 4.125 9 3.70312C9 3.46875 9.28125 2.8125 9.75 2.10938ZM16.5 5.95312C17.7188 5.95312 18.75 4.96875 18.75 3.70312C18.75 2.76562 17.5781 0.984375 17.1094 0.28125C16.9688 0.09375 16.7344 0 16.5 0C16.2188 0 15.9844 0.09375 15.8438 0.28125C15.375 0.984375 14.25 2.76562 14.25 3.70312C14.25 4.96875 15.2344 5.95312 16.5 5.95312ZM16.5 2.10938C16.9219 2.85938 17.2031 3.51562 17.25 3.70312C17.25 4.125 16.875 4.45312 16.5 4.45312C16.0781 4.45312 15.75 4.125 15.75 3.70312C15.75 3.46875 16.0312 2.8125 16.5 2.10938ZM3 5.95312C4.21875 5.95312 5.25 4.96875 5.25 3.70312C5.25 2.76562 4.07812 0.984375 3.60938 0.28125C3.46875 0.09375 3.23438 0 3 0C2.71875 0 2.48438 0.09375 2.34375 0.28125C1.875 0.984375 0.75 2.76562 0.75 3.70312C0.75 4.96875 1.73438 5.95312 3 5.95312ZM3 2.10938C3.42188 2.8125 3.70312 3.46875 3.75 3.70312C3.75 4.125 3.375 4.45312 3 4.45312C2.57812 4.45312 2.25 4.125 2.25 3.70312C2.25 3.46875 2.53125 2.8125 3 2.10938ZM15 16.4531C14.3438 16.4531 13.875 16.9688 13.875 17.5781C13.875 18.2344 14.3438 18.7031 15 18.7031C15.6094 18.7031 16.125 18.2344 16.125 17.5781C16.125 16.9688 15.6094 16.4531 15 16.4531ZM17.3906 13.7812L16.6406 10.5469C16.3125 9.1875 15.1406 8.20312 13.7344 8.20312H5.57812C4.21875 8.20312 3 9.1875 2.67188 10.5469L1.92188 13.875C0.796875 14.4375 0 15.6094 0 16.9688V19.5469C0 20.4844 0.609375 21.3281 1.5 21.6094V23.2031C1.5 23.625 1.82812 23.9531 2.25 23.9531C2.625 23.9531 3 23.625 3 23.2031V21.7031H16.5V23.2031C16.5 23.625 16.8281 23.9531 17.25 23.9531C17.625 23.9531 18 23.625 18 23.2031V21.6094C18.8906 21.3281 19.4531 20.4844 19.5 19.5469V16.9688C19.5 15.6094 18.6562 14.3438 17.3906 13.7812ZM4.125 10.875C4.3125 10.2188 4.92188 9.75 5.625 9.75H13.7344C14.4375 9.75 15.0469 10.2188 15.1875 10.875L15.7969 13.5H3.5625L4.125 10.875ZM18 19.5469C18 19.9219 17.6719 20.25 17.2969 20.25H2.15625C1.78125 20.2031 1.5 19.9219 1.5 19.5469V16.9688C1.5 15.8906 2.39062 15 3.46875 15H15.9844C17.0625 15 18 15.8906 18 16.9688V19.5469ZM4.5 16.4531C3.84375 16.4531 3.375 16.9688 3.375 17.5781C3.375 18.2344 3.84375 18.7031 4.5 18.7031C5.10938 18.7031 5.625 18.2344 5.625 17.5781C5.625 16.9688 5.10938 16.4531 4.5 16.4531Z" fill="#5C8EE6"/>
</symbol><symbol viewBox="0 0 18 24" fill="none" id="c8" xmlns="http://www.w3.org/2000/svg">
<path d="M16.5 0H1.5C0.65625 0 0 0.703125 0 1.5V15C0 16.6875 1.3125 18 3 18H6V21C6 22.6875 7.3125 24 9 24C10.6406 24 12 22.6875 12 21V18H15C16.6406 18 18 16.6875 18 15V1.5C18 0.703125 17.2969 0 16.5 0ZM16.5 15C16.5 15.8438 15.7969 16.5 15 16.5H10.5V21C10.5 21.8438 9.79688 22.5 9 22.5C8.15625 22.5 7.5 21.8438 7.5 21V16.5H3C2.15625 16.5 1.5 15.8438 1.5 15V13.5H16.5V15ZM16.5 12H1.5V1.5H16.5V12Z" fill="#5C8EE6"/>
</symbol><symbol viewBox="0 0 30 24" fill="none" id="c9" xmlns="http://www.w3.org/2000/svg">
<path d="M15 19.5C15.375 19.5 15.75 19.1719 15.75 18.75V17.25H17.25C17.625 17.25 18 16.9219 18 16.5C18 16.125 17.625 15.75 17.25 15.75H15.75V14.25C15.75 13.875 15.375 13.5 15 13.5C14.5781 13.5 14.25 13.875 14.25 14.25V15.75H12.75C12.3281 15.75 12 16.125 12 16.5C12 16.9219 12.3281 17.25 12.75 17.25H14.25V18.75C14.25 19.1719 14.5781 19.5 15 19.5ZM3.75 10.5C4.125 10.5 4.5 10.1719 4.5 9.75V7.5H6C6.375 7.5 6.75 7.17188 6.75 6.75C6.75 6.375 6.375 6 6 6H4.5V3.75C4.5 3.375 4.125 3 3.75 3C3.32812 3 3 3.375 3 3.75V6H0.75C0.328125 6 0 6.375 0 6.75C0 7.07812 0.328125 7.5 0.75 7.5H3V9.75C3 10.1719 3.32812 10.5 3.75 10.5ZM29.25 19.5H27V17.25C27 16.875 26.625 16.5 26.25 16.5C25.8281 16.5 25.5 16.875 25.5 17.25V19.5H23.25C22.8281 19.5 22.5 19.875 22.5 20.25C22.5 20.625 22.8281 21 23.25 21H25.5V23.25C25.5 23.6719 25.8281 24 26.25 24C26.625 24 27 23.6719 27 23.25V21H29.25C29.625 21 29.9531 20.6719 29.9531 20.2969C29.9531 19.9219 29.625 19.5 29.25 19.5ZM21.375 21.5625C20.8594 21.5625 20.0625 22.5 17.9531 22.5H13.2188C11.4375 22.5 9.79688 21.6562 8.76562 20.25L4.73438 14.9062C4.54688 14.6719 4.45312 14.4375 4.45312 14.1562C4.45312 13.5469 4.96875 13.125 5.53125 13.125C5.76562 13.125 6.14062 13.2188 6.42188 13.5938L8.01562 15.7031C8.29688 16.0781 8.76562 16.3125 9.1875 16.3125C9.375 16.3125 10.5 16.1719 10.5 15.0469C10.5 15.0469 10.5 15.0469 10.5 15V4.17188C10.5 3.60938 10.9219 3 11.625 3C12.2344 3 12.75 3.51562 12.75 4.125V11.25C12.75 11.3438 12.8438 12.0469 13.5 12.0469C13.875 12.0469 14.2031 11.6719 14.2031 11.2969V2.67188C14.2031 2.10938 14.625 1.5 15.3281 1.5C15.9375 1.5 16.4531 2.01562 16.4531 2.625V11.25C16.4531 11.3438 16.5469 12.0469 17.2031 12.0469C17.5781 12.0469 17.9531 11.6719 17.9531 11.2969V4.17188C17.9531 3.60938 18.375 3 19.0781 3C19.6875 3 20.2031 3.51562 20.2031 4.125V11.2031C20.2031 11.3438 20.2969 12 20.9531 12C21.3281 12 21.7031 11.6719 21.7031 11.2969V6.42188C21.7031 5.8125 22.125 5.25 22.8281 5.25C23.4375 5.25 23.9531 5.76562 23.9531 6.375V14.1094C23.9531 14.4844 24.2812 14.8594 24.7031 14.8594C25.0781 14.8594 25.5 14.4844 25.5 14.1094V6.46875C25.5 5.4375 24.7031 3.75 22.8281 3.75C22.4531 3.75 22.0781 3.84375 21.7031 3.98438C21.6562 2.625 20.4844 1.5 19.0781 1.5C18.6094 1.5 18.1875 1.64062 17.8125 1.82812C17.4844 0.796875 16.5 0 15.3281 0C14.1562 0 13.2188 0.796875 12.8438 1.875C12.4688 1.64062 12.0469 1.5 11.625 1.5C9.75 1.5 9 3.23438 9 4.26562V14.4375L7.54688 12.6094C7.07812 12 6.32812 11.625 5.53125 11.625C4.125 11.625 3 12.7031 3 14.1562C3 14.7188 3.14062 15.3281 3.51562 15.7969L7.59375 21.1406C8.85938 22.9219 10.9688 24 13.2188 24H18C19.5 24 22.125 23.2969 22.125 22.3125C22.125 22.0312 21.9375 21.5625 21.375 21.5625Z" fill="#5C8EE6"/>
</symbol><symbol viewBox="0 0 140 44" fill="none" id="logo-1" xmlns="http://www.w3.org/2000/svg">
<g clip-path="url(#kclip0_191_1865)">
<path fill-rule="evenodd" clip-rule="evenodd" d="M21.9928 4.89351C24.2857 4.89351 26.4733 5.34481 28.4715 6.16361V12.3539V21.8184C28.4715 25.3669 25.5949 28.2436 22.0465 28.2436C20.5375 28.2436 19.15 27.7235 18.0536 26.8527V32.5405C19.2966 33.0038 20.6421 33.2569 22.0465 33.2569C29.0248 33.2569 33.5146 27.7473 33.5146 21.0594V3.25613C30.1638 1.19127 26.2173 0 21.9928 0C9.84658 0 0 9.84658 0 21.9928C0 28.9293 3.21131 35.1156 8.22825 39.1466V32.1397C6.13243 29.3013 4.89351 25.7918 4.89351 21.9928C4.89351 12.5492 12.5492 4.89351 21.9928 4.89351Z" fill="#292D33"/>
<path fill-rule="evenodd" clip-rule="evenodd" d="M22.0619 39.1065C19.7688 39.1065 17.5811 38.6552 15.583 37.8364V31.6461V22.1815C15.583 18.6331 18.4597 15.7563 22.0082 15.7563C23.5171 15.7563 24.9044 16.2765 26.0008 17.1473V11.4594C24.7578 10.9962 23.4125 10.7431 22.0082 10.7431C15.0299 10.7431 10.54 16.2527 10.54 22.9406V40.7438C13.8906 42.8087 17.8371 44 22.0619 44C34.2081 44 44.0546 34.1534 44.0546 22.0072C44.0546 15.0707 40.8433 8.88436 35.8264 4.85339V11.8603C37.9222 14.6987 39.1611 18.2082 39.1611 22.0072C39.1611 31.4508 31.5055 39.1065 22.0619 39.1065Z" fill="#5C8EE6"/>
<path d="M71.3035 22.5536C71.3035 22.6595 71.2612 22.7443 71.1976 22.8079C71.1339 22.8716 71.028 22.9138 70.9221 22.9138H68.676C68.5701 22.9138 68.4853 22.8716 68.4216 22.8079C68.3582 22.7443 68.2946 22.6595 68.2735 22.5536L67.2985 18.5275H62.4249L61.45 22.5536C61.4289 22.6595 61.3655 22.7443 61.3019 22.8079C61.2382 22.8716 61.1534 22.9138 61.0475 22.9138H58.8014C58.6955 22.9138 58.5896 22.8716 58.5259 22.8079C58.4622 22.7443 58.42 22.6595 58.42 22.5536C58.42 22.5324 58.42 22.5324 58.4411 22.5113C58.4411 22.4902 58.4411 22.4688 58.4411 22.4476L61.9165 9.16164C62.0435 8.67402 62.2342 8.27152 62.4672 7.99603C62.7004 7.72055 62.9759 7.48762 63.2514 7.33916C63.5269 7.19102 63.8023 7.10623 64.099 7.06367C64.3744 7.02144 64.6288 7 64.8617 7C65.095 7 65.349 7.02144 65.6456 7.06367C65.9211 7.10623 66.218 7.19102 66.4935 7.33916C66.769 7.48762 67.0231 7.72055 67.2563 7.99603C67.4892 8.27152 67.6799 8.67402 67.8073 9.16164L71.2824 22.4476C71.2824 22.4688 71.2823 22.4902 71.3035 22.5113C71.3035 22.5324 71.3035 22.5324 71.3035 22.5536ZM65.2009 9.81852C65.1795 9.69117 65.1372 9.60638 65.095 9.54304C65.0524 9.50048 64.9676 9.47936 64.8617 9.47936C64.7558 9.47936 64.671 9.50048 64.6288 9.54304C64.5862 9.60638 64.544 9.69117 64.5226 9.81852L62.997 16.1118H66.7265L65.2009 9.81852Z" fill="#292D33"/>
<path d="M81.7927 22.3417C81.7927 22.4902 81.7712 22.5961 81.7079 22.6594C81.6442 22.7231 81.5172 22.7653 81.3687 22.7868C81.2206 22.829 80.9873 22.8716 80.7119 22.8927C80.4153 22.9349 80.0975 22.9775 79.7584 22.9986C79.4192 23.0197 79.0804 23.0408 78.7201 23.0623C78.3598 23.0834 78.0418 23.0834 77.7663 23.0834C77.0672 23.0834 76.4314 23.0197 75.8382 22.9138C75.2447 22.8079 74.7363 22.575 74.2912 22.2569C73.8462 21.9392 73.5073 21.5153 73.253 20.9432C72.9986 20.3711 72.8716 19.6505 72.8716 18.7393V7.59352C72.8716 7.48761 72.9138 7.38139 72.9986 7.29692C73.0834 7.21213 73.1893 7.16958 73.2955 7.16958H75.3932C75.4991 7.16958 75.605 7.21213 75.6898 7.29692C75.7746 7.38139 75.8171 7.48761 75.8171 7.59352V18.7393C75.8171 19.4387 75.9441 19.926 76.1771 20.1804C76.4103 20.4344 76.8554 20.5618 77.4697 20.5618H81.3687C81.4746 20.5618 81.5805 20.604 81.6653 20.6888C81.7501 20.7736 81.7927 20.8795 81.7927 20.9854V22.3417ZM86.7511 22.4902C86.7511 22.5961 86.7085 22.702 86.6237 22.7868C86.5393 22.8716 86.433 22.9138 86.3271 22.9138H84.2295C84.1236 22.9138 84.0177 22.8716 83.9329 22.7868C83.8481 22.702 83.8055 22.5961 83.8055 22.4902V7.57241C83.8055 7.46618 83.8481 7.36027 83.9329 7.27548C84.0177 7.21214 84.1236 7.16958 84.2295 7.16958H86.3271C86.433 7.16958 86.5393 7.21214 86.6237 7.27548C86.7085 7.36027 86.7511 7.46618 86.7511 7.57241V22.4902ZM101.626 22.5535C101.626 22.6594 101.584 22.7442 101.52 22.8079C101.457 22.8716 101.351 22.9138 101.245 22.9138H98.9988C98.8929 22.9138 98.8081 22.8716 98.7444 22.8079C98.6811 22.7442 98.6174 22.6594 98.5963 22.5535L97.6214 18.5275H92.7478L91.7732 22.5535C91.7517 22.6594 91.6884 22.7442 91.6247 22.8079C91.561 22.8716 91.4766 22.9138 91.3703 22.9138H89.1242C89.0183 22.9138 88.9124 22.8716 88.8487 22.8079C88.7854 22.7442 88.7428 22.6594 88.7428 22.5535C88.7428 22.5324 88.7428 22.5324 88.7639 22.5113C88.7639 22.4902 88.7639 22.4687 88.7639 22.4476L92.2393 9.16164C92.3664 8.67402 92.5571 8.27152 92.7903 7.99603C93.0232 7.72055 93.2987 7.48762 93.5742 7.33916C93.8497 7.19102 94.1252 7.10623 94.4218 7.06367C94.6973 7.02144 94.9516 7 95.1846 7C95.4178 7 95.6719 7.02144 95.9688 7.06367C96.2443 7.10623 96.5409 7.19102 96.8164 7.33916C97.0918 7.48762 97.3459 7.72055 97.5791 7.99603C97.8121 8.27152 98.0031 8.67402 98.1301 9.16164L101.605 22.4476C101.605 22.4687 101.605 22.4902 101.626 22.5113C101.626 22.5324 101.626 22.5324 101.626 22.5535ZM95.5237 9.81851C95.5026 9.69117 95.46 9.60638 95.4178 9.54303C95.3753 9.50047 95.2905 9.47936 95.1846 9.47936C95.0787 9.47936 94.9939 9.50047 94.9516 9.54303C94.9091 9.60638 94.8668 9.69117 94.8457 9.81851L93.3198 16.1118H97.0493L95.5237 9.81851ZM115.527 22.0662C115.527 22.2995 115.442 22.5113 115.294 22.6594C115.124 22.829 114.913 22.9138 114.679 22.9138H112.539C112.285 22.9138 112.052 22.8716 111.84 22.8079C111.607 22.7442 111.416 22.5324 111.247 22.151L106.542 11.8314C106.479 11.7255 106.415 11.6618 106.352 11.6618C106.288 11.6618 106.246 11.7255 106.246 11.8314V22.4902C106.246 22.5961 106.203 22.702 106.14 22.7868C106.055 22.8716 105.949 22.9138 105.843 22.9138H104.042C103.936 22.9138 103.83 22.8716 103.745 22.7868C103.661 22.702 103.618 22.5961 103.618 22.4902V8.01714C103.618 7.78422 103.703 7.57241 103.872 7.40283C104.021 7.25437 104.233 7.16958 104.466 7.16958H106.754C106.988 7.16958 107.157 7.21213 107.305 7.29692C107.433 7.38139 107.56 7.57241 107.687 7.84757L112.624 18.7393C112.666 18.8452 112.73 18.9089 112.794 18.9089C112.857 18.9089 112.899 18.8452 112.899 18.7182V7.57241C112.899 7.29692 113.027 7.16958 113.302 7.16958H115.124C115.4 7.16958 115.527 7.29692 115.527 7.57241V22.0662ZM128.072 22.2569C128.072 22.4054 128.029 22.5113 127.945 22.575C127.86 22.6383 127.754 22.702 127.605 22.7442C127.521 22.7653 127.372 22.8079 127.181 22.829C126.97 22.8716 126.715 22.9138 126.419 22.9564C126.122 22.9775 125.783 23.0197 125.423 23.0408C125.063 23.0623 124.66 23.0834 124.257 23.0834C123.622 23.0834 122.944 22.9986 122.244 22.8079C121.545 22.6172 120.888 22.278 120.316 21.7907C119.723 21.3034 119.256 20.6466 118.854 19.8201C118.472 18.9937 118.282 17.9128 118.282 16.5991V13.4843C118.282 12.1494 118.472 11.0686 118.854 10.221C119.256 9.39457 119.723 8.7377 120.316 8.2504C120.888 7.76311 121.545 7.44506 122.244 7.25436C122.944 7.08478 123.622 7 124.257 7C124.66 7 125.063 7.02144 125.423 7.04255C125.783 7.06367 126.122 7.10623 126.419 7.12734C126.715 7.16958 126.97 7.21213 127.181 7.25436C127.372 7.29692 127.521 7.31804 127.605 7.33916C127.754 7.38139 127.86 7.42394 127.945 7.48761C128.029 7.55096 128.072 7.67831 128.072 7.82645V9.24643C128.072 9.37345 128.05 9.47936 127.987 9.56415C127.923 9.64894 127.796 9.69117 127.648 9.69117H127.605C127.415 9.67005 127.203 9.64894 126.948 9.62782C126.673 9.60638 126.398 9.60638 126.101 9.58526C125.804 9.56415 125.507 9.56415 125.19 9.54303C124.872 9.52191 124.575 9.52192 124.3 9.52192C123.855 9.52192 123.431 9.58527 123.071 9.71262C122.689 9.86075 122.371 10.0726 122.096 10.3695C121.821 10.6872 121.609 11.0897 121.46 11.5984C121.312 12.1069 121.227 12.7426 121.227 13.4843V16.5991C121.227 17.3408 121.312 17.9554 121.46 18.4638C121.609 18.9725 121.821 19.3751 122.096 19.6931C122.371 20.0108 122.689 20.2226 123.071 20.35C123.431 20.4981 123.855 20.5618 124.3 20.5618C124.575 20.5618 124.872 20.5618 125.19 20.5407C125.507 20.5192 125.804 20.5192 126.101 20.4981C126.398 20.477 126.673 20.4559 126.948 20.4344C127.203 20.4133 127.415 20.4133 127.605 20.3922H127.648C127.796 20.3922 127.923 20.4344 127.987 20.5192C128.05 20.604 128.072 20.7099 128.072 20.8373V22.2569ZM140.002 22.3417C140.002 22.4902 139.98 22.5961 139.917 22.6594C139.853 22.7231 139.726 22.7653 139.578 22.7868C139.408 22.8079 139.218 22.8501 139.027 22.8716C138.815 22.9138 138.56 22.9563 138.264 22.9775C137.946 22.9986 137.586 23.0408 137.162 23.0623C136.717 23.0834 136.187 23.0834 135.552 23.0834C134.852 23.0834 134.217 23.0197 133.623 22.9138C133.03 22.8079 132.5 22.575 132.076 22.2569C131.631 21.9392 131.271 21.5153 131.017 20.9432C130.763 20.3711 130.635 19.6505 130.635 18.7393V11.3441C130.635 10.4328 130.763 9.71261 131.017 9.1402C131.271 8.56812 131.631 8.12305 132.076 7.80533C132.5 7.48761 133.03 7.27548 133.623 7.16958C134.217 7.06367 134.852 7 135.552 7C136.187 7 136.717 7 137.162 7.02144C137.586 7.04255 137.946 7.08478 138.264 7.10622C138.56 7.12734 138.815 7.16958 139.027 7.19102C139.218 7.23325 139.408 7.27548 139.578 7.29692C139.726 7.31804 139.853 7.36027 139.917 7.42394C139.98 7.48761 140.002 7.59352 140.002 7.74166V9.09797C140.002 9.20387 139.959 9.30978 139.874 9.39457C139.79 9.47936 139.684 9.52192 139.578 9.52192H135.255C134.64 9.52192 134.196 9.64894 133.962 9.90331C133.708 10.1574 133.581 10.6447 133.581 11.3441V13.6327H139.324C139.429 13.6327 139.535 13.675 139.62 13.7598C139.705 13.8446 139.747 13.9505 139.747 14.0564V15.5819C139.747 15.6882 139.705 15.7941 139.62 15.8789C139.535 15.9636 139.429 16.0059 139.324 16.0059H133.581V18.7393C133.581 19.4387 133.708 19.926 133.962 20.1804C134.196 20.4344 134.64 20.5618 135.255 20.5618H139.578C139.684 20.5618 139.79 20.604 139.874 20.6888C139.959 20.7736 140.002 20.8795 140.002 20.9854V22.3417Z" fill="#292D33"/>
<path d="M65.8759 29.9868C65.8759 30.5816 65.7677 31.0816 65.565 31.4867C65.3489 31.8921 65.0653 32.2167 64.7002 32.4597C64.349 32.7167 63.9303 32.8921 63.4706 32.9866C62.9979 33.0948 62.4979 33.149 61.9707 33.149C61.7953 33.149 61.5925 33.1354 61.3492 33.1218C61.1195 33.1084 60.9168 33.1084 60.768 33.0948V36.6215C60.768 36.6891 60.7411 36.7567 60.7005 36.8109C60.6465 36.8648 60.579 36.8918 60.5114 36.8918H59.1603C59.0927 36.8918 59.0251 36.8648 58.9709 36.8109C58.917 36.7567 58.89 36.6891 58.89 36.6215V27.3249C58.89 27.1897 58.9306 27.0952 59.0115 27.0276C59.0791 26.9737 59.1873 26.9331 59.3224 26.9198C59.6736 26.8655 60.079 26.8249 60.5384 26.7846C60.998 26.7573 61.4844 26.744 61.9843 26.744C62.4979 26.744 62.9979 26.7979 63.4706 26.8925C63.9303 26.987 64.349 27.1628 64.7002 27.4061C65.0653 27.6494 65.3489 27.9736 65.565 28.3654C65.7677 28.7709 65.8759 29.2708 65.8759 29.8653V29.9868ZM63.9978 29.8517C63.9978 29.2845 63.8354 28.879 63.4979 28.6494C63.16 28.406 62.6464 28.2845 61.9707 28.2845C61.9031 28.2845 61.8086 28.2845 61.7004 28.2845C61.5789 28.2978 61.4707 28.2978 61.3492 28.2978C61.2277 28.3115 61.1195 28.3115 61.025 28.3115C60.9168 28.3248 60.8356 28.3248 60.768 28.3385V31.5679C60.8223 31.5679 60.9032 31.5679 61.025 31.5679C61.1332 31.5816 61.2547 31.5816 61.3762 31.5816C61.498 31.5949 61.6059 31.5949 61.7277 31.5949C61.8355 31.6085 61.9168 31.6085 61.9707 31.6085C62.7003 31.6085 63.2276 31.4734 63.5382 31.2031C63.8491 30.9328 63.9978 30.5274 63.9978 29.9735V29.8517ZM74.6456 36.7297C74.6456 36.8379 74.5917 36.8918 74.4835 36.8918H72.8348C72.7672 36.8918 72.7133 36.8648 72.6727 36.8109C72.6324 36.7567 72.6051 36.6891 72.5648 36.6215L70.6189 33.0272H70.4298C70.2541 33.0272 70.0377 33.0139 69.808 33.0003C69.5784 32.9866 69.3756 32.9866 69.2272 32.9733V36.6215C69.2272 36.6891 69.1999 36.7567 69.1596 36.8109C69.1054 36.8648 69.0378 36.8918 68.9702 36.8918H67.6191C67.5515 36.8918 67.484 36.8648 67.43 36.8109C67.3758 36.7567 67.3488 36.6891 67.3488 36.6215V27.3249C67.3488 27.1897 67.3894 27.0952 67.4703 27.0276C67.5379 26.9737 67.6461 26.9331 67.7812 26.9198C68.1324 26.8655 68.5378 26.8249 68.9975 26.7846C69.4569 26.7573 69.9432 26.744 70.4431 26.744C70.9568 26.744 71.4567 26.7979 71.9297 26.8925C72.3891 27.0007 72.8078 27.1764 73.1593 27.4061C73.5242 27.6358 73.8078 27.9467 74.0241 28.3385C74.2268 28.7302 74.3347 29.2169 74.3347 29.7977V29.9192C74.3347 30.6356 74.1726 31.2301 73.8347 31.6761C73.5105 32.1218 73.0645 32.4597 72.4973 32.676L74.6186 36.6215C74.6319 36.6488 74.6456 36.6891 74.6456 36.7297ZM72.4567 29.7977C72.4567 29.2845 72.2945 28.9196 71.9567 28.6896C71.6188 28.46 71.1052 28.3521 70.4298 28.3521C70.3623 28.3521 70.2674 28.3521 70.1595 28.3521C70.0377 28.3654 69.9299 28.3654 69.808 28.3654C69.6865 28.3791 69.5784 28.3791 69.4838 28.3791C69.3756 28.3924 69.2948 28.3924 69.2272 28.406V31.4464C69.2811 31.4464 69.3623 31.4464 69.4838 31.4464C69.592 31.4597 69.7135 31.4598 69.835 31.4598C69.9568 31.4734 70.0647 31.4734 70.1865 31.4734C70.2947 31.4867 70.3756 31.4867 70.4298 31.4867C71.1322 31.4867 71.6458 31.3789 71.97 31.1492C72.2945 30.9195 72.4567 30.5141 72.4567 29.9192V29.7977Z" fill="#5C8EE6"/>
<path d="M83.3208 32.7842C83.3208 33.5272 83.2259 34.176 83.0368 34.7029C82.8341 35.2298 82.5775 35.6622 82.226 36.0001C81.8884 36.3379 81.483 36.5946 81.01 36.7567C80.5507 36.9188 80.037 37 79.4831 37C78.9156 37 78.402 36.9188 77.9426 36.7567C77.4696 36.5946 77.0642 36.3379 76.7267 36.0001C76.3888 35.6622 76.1185 35.2298 75.9291 34.7029C75.7264 34.176 75.6319 33.5272 75.6319 32.7842V30.9598C75.6319 30.2168 75.7264 29.5817 75.9291 29.0411C76.1185 28.5142 76.3888 28.0682 76.7267 27.7303C77.0642 27.3925 77.4696 27.1495 77.9426 26.987C78.402 26.8249 78.9156 26.744 79.4831 26.744C80.037 26.744 80.5507 26.8249 81.01 26.987C81.483 27.1495 81.8884 27.3925 82.226 27.7303C82.5775 28.0682 82.8341 28.5142 83.0368 29.0411C83.2259 29.5817 83.3208 30.2168 83.3208 30.9598V32.7842ZM81.4424 30.9598C81.4424 30.0544 81.2803 29.406 80.9561 28.9869C80.6452 28.5818 80.1452 28.3791 79.4831 28.3791C78.8074 28.3791 78.3075 28.5818 77.9966 28.9869C77.6724 29.406 77.5102 30.0544 77.5102 30.9598V32.7842C77.5102 33.6893 77.6724 34.3381 77.9966 34.7435C78.3075 35.1623 78.8074 35.365 79.4831 35.365C80.1452 35.365 80.6452 35.1623 80.9561 34.7435C81.2803 34.3381 81.4424 33.6893 81.4424 32.7842V30.9598ZM92.3604 32.8651C92.3604 34.2029 91.9956 35.2298 91.2523 35.9325C90.5227 36.6488 89.4688 37 88.1177 37C87.8607 37 87.6177 37 87.3475 36.9864C87.0772 36.9731 86.8205 36.9594 86.5772 36.9461C86.3202 36.9324 86.1042 36.9055 85.9015 36.8918C85.6988 36.8785 85.5367 36.8512 85.4421 36.8379C85.3206 36.8243 85.2394 36.784 85.1855 36.7164C85.1179 36.6488 85.0906 36.554 85.0906 36.4188V27.3249C85.0906 27.1897 85.1179 27.0952 85.1855 27.0276C85.2394 26.9601 85.3206 26.9198 85.4421 26.9061C85.5367 26.8925 85.6988 26.8655 85.9015 26.8522C86.1042 26.8386 86.3202 26.8116 86.5772 26.798C86.8205 26.7846 87.0772 26.771 87.3475 26.7573C87.6177 26.744 87.8607 26.744 88.1177 26.744C89.4688 26.744 90.5227 27.0952 91.2523 27.7979C91.9956 28.5142 92.3604 29.5411 92.3604 30.8789V32.8651ZM90.4824 30.8789C90.4824 30.3789 90.4281 29.9599 90.3066 29.6356C90.1851 29.2978 90.0094 29.0411 89.8067 28.8384C89.5903 28.6494 89.3337 28.5142 89.0501 28.433C88.7528 28.3654 88.4419 28.3248 88.1041 28.3248C87.8474 28.3248 87.6311 28.3248 87.4553 28.3385C87.2799 28.3521 87.1178 28.3521 86.969 28.3654V35.3919C87.1178 35.4056 87.2799 35.4056 87.4553 35.4189C87.6311 35.4325 87.8474 35.4325 88.1041 35.4325C88.4419 35.4325 88.7528 35.3919 89.0501 35.3111C89.3337 35.2435 89.5903 35.1083 89.8067 34.9056C90.0094 34.7165 90.1851 34.4596 90.3066 34.1217C90.4281 33.7975 90.4824 33.3787 90.4824 32.8788V30.8789ZM101.468 33.176C101.468 33.892 101.373 34.5002 101.198 34.9865C101.009 35.4732 100.752 35.8649 100.427 36.1622C100.09 36.4594 99.6978 36.6758 99.2518 36.7973C98.7924 36.9325 98.2925 37 97.7519 37C97.2116 37 96.7117 36.9325 96.2656 36.7973C95.8063 36.6758 95.4145 36.4594 95.0899 36.1622C94.7521 35.8649 94.4954 35.4732 94.3197 34.9865C94.1306 34.5002 94.0361 33.892 94.0361 33.176V27.1088C94.0361 27.0413 94.063 26.9737 94.1173 26.9198C94.1712 26.8792 94.2388 26.8522 94.3064 26.8522H95.6442C95.7117 26.8522 95.7793 26.8792 95.8332 26.9198C95.8872 26.9737 95.9144 27.0413 95.9144 27.1088V33.1894C95.9144 33.5678 95.9414 33.9057 95.9953 34.1893C96.0496 34.4732 96.1441 34.7165 96.2926 34.9056C96.4277 35.0947 96.6168 35.2298 96.8468 35.3244C97.0765 35.4189 97.3871 35.4595 97.7519 35.4595C98.117 35.4595 98.4143 35.4189 98.6573 35.3244C98.887 35.2298 99.0764 35.0947 99.2248 34.9056C99.36 34.7165 99.4545 34.4732 99.5087 34.1893C99.5627 33.9057 99.5896 33.5678 99.5896 33.1894V27.1088C99.5896 27.0413 99.6169 26.9737 99.6709 26.9198C99.7248 26.8792 99.7924 26.8522 99.8599 26.8522H101.198C101.265 26.8522 101.333 26.8792 101.387 26.9198C101.441 26.9737 101.468 27.0413 101.468 27.1088V33.176ZM109.4 36.4731C109.4 36.5676 109.373 36.6352 109.319 36.6758C109.265 36.7164 109.197 36.7567 109.103 36.784C109.048 36.7973 108.954 36.8243 108.832 36.8379C108.697 36.8649 108.535 36.8918 108.346 36.9188C108.157 36.9325 107.941 36.9594 107.711 36.9731C107.481 36.9864 107.224 37 106.968 37C106.562 37 106.13 36.9461 105.684 36.8243C105.238 36.7028 104.819 36.4864 104.454 36.1758C104.076 35.8649 103.779 35.4462 103.522 34.9189C103.279 34.392 103.157 33.703 103.157 32.8651V30.8789C103.157 30.0274 103.279 29.3384 103.522 28.7978C103.779 28.2709 104.076 27.8521 104.454 27.5412C104.819 27.2303 105.238 27.0276 105.684 26.9061C106.13 26.798 106.562 26.744 106.968 26.744C107.224 26.744 107.481 26.7573 107.711 26.771C107.941 26.7846 108.157 26.8116 108.346 26.8249C108.535 26.8522 108.697 26.8792 108.832 26.9061C108.954 26.9331 109.048 26.9467 109.103 26.9601C109.197 26.987 109.265 27.0143 109.319 27.0546C109.373 27.0952 109.4 27.1764 109.4 27.271V28.1764C109.4 28.2572 109.386 28.3248 109.346 28.3791C109.305 28.433 109.224 28.46 109.13 28.46H109.103C108.981 28.4466 108.846 28.433 108.684 28.4194C108.508 28.406 108.332 28.406 108.143 28.3924C107.954 28.3791 107.765 28.3791 107.562 28.3654C107.359 28.3521 107.17 28.3521 106.995 28.3521C106.711 28.3521 106.441 28.3924 106.211 28.4736C105.968 28.5681 105.765 28.7033 105.589 28.8924C105.413 29.0951 105.278 29.352 105.184 29.6763C105.089 30.0005 105.035 30.4059 105.035 30.8789V32.8651C105.035 33.3381 105.089 33.7299 105.184 34.0541C105.278 34.3787 105.413 34.6353 105.589 34.838C105.765 35.0408 105.968 35.1759 106.211 35.2568C106.441 35.3513 106.711 35.3919 106.995 35.3919C107.17 35.3919 107.359 35.3919 107.562 35.3786C107.765 35.365 107.954 35.365 108.143 35.3513C108.332 35.338 108.508 35.3244 108.684 35.3111C108.846 35.2974 108.981 35.2974 109.103 35.2838H109.13C109.224 35.2838 109.305 35.311 109.346 35.365C109.386 35.4189 109.4 35.4865 109.4 35.5677V36.4731ZM117.508 28.1764C117.508 28.2439 117.48 28.3115 117.426 28.3521C117.372 28.3924 117.305 28.4194 117.237 28.4194H114.873V36.6216C114.873 36.6891 114.845 36.7567 114.791 36.811C114.737 36.8649 114.67 36.8918 114.602 36.8918H113.264C113.197 36.8918 113.129 36.8649 113.075 36.811C113.021 36.7567 112.994 36.6891 112.994 36.6216V28.4194H110.63C110.562 28.4194 110.494 28.3924 110.44 28.3521C110.386 28.3115 110.359 28.2439 110.359 28.1764V27.1088C110.359 27.0413 110.386 26.9737 110.44 26.9198C110.494 26.8792 110.562 26.8522 110.63 26.8522H117.237C117.305 26.8522 117.372 26.8792 117.426 26.9198C117.48 26.9737 117.508 27.0413 117.508 27.1088V28.1764ZM120.737 36.6216C120.737 36.6891 120.71 36.7567 120.656 36.811C120.602 36.8649 120.534 36.8918 120.467 36.8918H119.129C119.061 36.8918 118.994 36.8649 118.94 36.811C118.886 36.7567 118.859 36.6891 118.859 36.6216V27.1088C118.859 27.0413 118.886 26.9737 118.94 26.9198C118.994 26.8792 119.061 26.8522 119.129 26.8522H120.467C120.534 26.8522 120.602 26.8792 120.656 26.9198C120.71 26.9737 120.737 27.0413 120.737 27.1088V36.6216ZM130.182 32.7842C130.182 33.5272 130.088 34.176 129.898 34.7029C129.696 35.2298 129.439 35.6622 129.088 36.0001C128.75 36.3379 128.344 36.5946 127.871 36.7567C127.412 36.9188 126.899 37 126.344 37C125.777 37 125.264 36.9188 124.804 36.7567C124.331 36.5946 123.926 36.3379 123.588 36.0001C123.25 35.6622 122.98 35.2298 122.791 34.7029C122.588 34.176 122.494 33.5272 122.494 32.7842V30.9598C122.494 30.2168 122.588 29.5817 122.791 29.0411C122.98 28.5142 123.25 28.0682 123.588 27.7303C123.926 27.3925 124.331 27.1495 124.804 26.987C125.264 26.8249 125.777 26.744 126.344 26.744C126.899 26.744 127.412 26.8249 127.871 26.987C128.344 27.1495 128.75 27.3925 129.088 27.7303C129.439 28.0682 129.696 28.5142 129.898 29.0411C130.088 29.5817 130.182 30.2168 130.182 30.9598V32.7842ZM128.304 30.9598C128.304 30.0544 128.142 29.406 127.817 28.9869C127.507 28.5818 127.007 28.3791 126.344 28.3791C125.669 28.3791 125.169 28.5818 124.858 28.9869C124.534 29.406 124.372 30.0544 124.372 30.9598V32.7842C124.372 33.6893 124.534 34.3381 124.858 34.7435C125.169 35.1623 125.669 35.365 126.344 35.365C127.007 35.365 127.507 35.1623 127.817 34.7435C128.142 34.3381 128.304 33.6893 128.304 32.7842V30.9598ZM139.546 36.3516C139.546 36.5001 139.492 36.6352 139.398 36.7297C139.29 36.8379 139.155 36.8918 139.006 36.8918H137.641C137.479 36.8918 137.33 36.8649 137.195 36.8243C137.046 36.784 136.925 36.6488 136.817 36.4055L133.817 29.8247C133.776 29.7571 133.736 29.7169 133.696 29.7169C133.655 29.7169 133.628 29.7571 133.628 29.8247V36.6216C133.628 36.6891 133.601 36.7567 133.56 36.811C133.506 36.8649 133.439 36.8918 133.371 36.8918H132.223C132.155 36.8918 132.087 36.8649 132.033 36.811C131.979 36.7567 131.952 36.6891 131.952 36.6216V27.3925C131.952 27.244 132.006 27.1088 132.114 27.0007C132.209 26.9061 132.344 26.8522 132.493 26.8522H133.952C134.101 26.8522 134.209 26.8792 134.303 26.9331C134.385 26.987 134.465 27.1088 134.547 27.2846L137.695 34.2299C137.722 34.2975 137.763 34.3381 137.803 34.3381C137.844 34.3381 137.871 34.2975 137.871 34.2166V27.1088C137.871 26.9331 137.952 26.8522 138.128 26.8522H139.29C139.465 26.8522 139.546 26.9331 139.546 27.1088V36.3516Z" fill="#5C8EE6"/>
</g>
<defs>
<clipPath id="kclip0_191_1865">
<rect width="140" height="44" fill="white"/>
</clipPath>
</defs>
</symbol><symbol viewBox="0 0 140 44" fill="none" id="logo-light" xmlns="http://www.w3.org/2000/svg">
<g clip-path="url(#lclip0_191_1609)">
<path fill-rule="evenodd" clip-rule="evenodd" d="M21.9928 4.89351C24.2857 4.89351 26.4733 5.34481 28.4715 6.16361V12.3539V21.8184C28.4715 25.3669 25.5949 28.2436 22.0465 28.2436C20.5375 28.2436 19.15 27.7235 18.0536 26.8527V32.5405C19.2966 33.0038 20.6421 33.2569 22.0465 33.2569C29.0248 33.2569 33.5146 27.7473 33.5146 21.0594V3.25613C30.1638 1.19127 26.2173 0 21.9928 0C9.84658 0 0 9.84658 0 21.9928C0 28.9293 3.21131 35.1156 8.22825 39.1466V32.1397C6.13243 29.3013 4.89351 25.7918 4.89351 21.9928C4.89351 12.5492 12.5492 4.89351 21.9928 4.89351Z" fill="white"/>
<path fill-rule="evenodd" clip-rule="evenodd" d="M22.0619 39.1065C19.7688 39.1065 17.5811 38.6552 15.583 37.8364V31.6461V22.1815C15.583 18.6331 18.4597 15.7563 22.0082 15.7563C23.5171 15.7563 24.9044 16.2765 26.0008 17.1473V11.4594C24.7578 10.9962 23.4125 10.7431 22.0082 10.7431C15.0299 10.7431 10.54 16.2527 10.54 22.9406V40.7438C13.8906 42.8087 17.8371 44 22.0619 44C34.2081 44 44.0546 34.1534 44.0546 22.0072C44.0546 15.0707 40.8433 8.88436 35.8264 4.85339V11.8603C37.9222 14.6987 39.1611 18.2082 39.1611 22.0072C39.1611 31.4508 31.5055 39.1065 22.0619 39.1065Z" fill="#5C8EE6"/>
<path d="M71.3035 22.5536C71.3035 22.6595 71.2612 22.7443 71.1976 22.8079C71.1339 22.8716 71.028 22.9138 70.9221 22.9138H68.676C68.5701 22.9138 68.4853 22.8716 68.4216 22.8079C68.3582 22.7443 68.2946 22.6595 68.2735 22.5536L67.2985 18.5275H62.4249L61.45 22.5536C61.4289 22.6595 61.3655 22.7443 61.3019 22.8079C61.2382 22.8716 61.1534 22.9138 61.0475 22.9138H58.8014C58.6955 22.9138 58.5896 22.8716 58.5259 22.8079C58.4622 22.7443 58.42 22.6595 58.42 22.5536C58.42 22.5324 58.42 22.5324 58.4411 22.5113C58.4411 22.4902 58.4411 22.4688 58.4411 22.4476L61.9165 9.16164C62.0435 8.67402 62.2342 8.27152 62.4672 7.99603C62.7004 7.72055 62.9759 7.48762 63.2514 7.33916C63.5269 7.19102 63.8023 7.10623 64.099 7.06367C64.3744 7.02144 64.6288 7 64.8617 7C65.095 7 65.349 7.02144 65.6456 7.06367C65.9211 7.10623 66.218 7.19102 66.4935 7.33916C66.769 7.48762 67.0231 7.72055 67.2563 7.99603C67.4892 8.27152 67.6799 8.67402 67.8073 9.16164L71.2824 22.4476C71.2824 22.4688 71.2823 22.4902 71.3035 22.5113C71.3035 22.5324 71.3035 22.5324 71.3035 22.5536ZM65.2009 9.81852C65.1795 9.69117 65.1372 9.60638 65.095 9.54304C65.0524 9.50048 64.9676 9.47936 64.8617 9.47936C64.7558 9.47936 64.671 9.50048 64.6288 9.54304C64.5862 9.60638 64.544 9.69117 64.5226 9.81852L62.997 16.1118H66.7265L65.2009 9.81852Z" fill="white"/>
<path d="M81.7927 22.3417C81.7927 22.4902 81.7712 22.5961 81.7079 22.6594C81.6442 22.7231 81.5172 22.7653 81.3687 22.7868C81.2206 22.829 80.9873 22.8716 80.7119 22.8927C80.4153 22.9349 80.0975 22.9775 79.7584 22.9986C79.4192 23.0197 79.0804 23.0408 78.7201 23.0623C78.3598 23.0834 78.0418 23.0834 77.7663 23.0834C77.0672 23.0834 76.4314 23.0197 75.8382 22.9138C75.2447 22.8079 74.7363 22.575 74.2912 22.2569C73.8462 21.9392 73.5073 21.5153 73.253 20.9432C72.9986 20.3711 72.8716 19.6505 72.8716 18.7393V7.59352C72.8716 7.48761 72.9138 7.38139 72.9986 7.29692C73.0834 7.21213 73.1893 7.16958 73.2955 7.16958H75.3932C75.4991 7.16958 75.605 7.21213 75.6898 7.29692C75.7746 7.38139 75.8171 7.48761 75.8171 7.59352V18.7393C75.8171 19.4387 75.9441 19.926 76.1771 20.1804C76.4103 20.4344 76.8554 20.5618 77.4697 20.5618H81.3687C81.4746 20.5618 81.5805 20.604 81.6653 20.6888C81.7501 20.7736 81.7927 20.8795 81.7927 20.9854V22.3417ZM86.7511 22.4902C86.7511 22.5961 86.7085 22.702 86.6237 22.7868C86.5393 22.8716 86.433 22.9138 86.3271 22.9138H84.2295C84.1236 22.9138 84.0177 22.8716 83.9329 22.7868C83.8481 22.702 83.8055 22.5961 83.8055 22.4902V7.57241C83.8055 7.46618 83.8481 7.36027 83.9329 7.27548C84.0177 7.21214 84.1236 7.16958 84.2295 7.16958H86.3271C86.433 7.16958 86.5393 7.21214 86.6237 7.27548C86.7085 7.36027 86.7511 7.46618 86.7511 7.57241V22.4902ZM101.626 22.5535C101.626 22.6594 101.584 22.7442 101.52 22.8079C101.457 22.8716 101.351 22.9138 101.245 22.9138H98.9988C98.8929 22.9138 98.8081 22.8716 98.7444 22.8079C98.6811 22.7442 98.6174 22.6594 98.5963 22.5535L97.6214 18.5275H92.7478L91.7732 22.5535C91.7517 22.6594 91.6884 22.7442 91.6247 22.8079C91.561 22.8716 91.4766 22.9138 91.3703 22.9138H89.1242C89.0183 22.9138 88.9124 22.8716 88.8487 22.8079C88.7854 22.7442 88.7428 22.6594 88.7428 22.5535C88.7428 22.5324 88.7428 22.5324 88.7639 22.5113C88.7639 22.4902 88.7639 22.4687 88.7639 22.4476L92.2393 9.16164C92.3664 8.67402 92.5571 8.27152 92.7903 7.99603C93.0232 7.72055 93.2987 7.48762 93.5742 7.33916C93.8497 7.19102 94.1252 7.10623 94.4218 7.06367C94.6973 7.02144 94.9516 7 95.1846 7C95.4178 7 95.6719 7.02144 95.9688 7.06367C96.2443 7.10623 96.5409 7.19102 96.8164 7.33916C97.0918 7.48762 97.3459 7.72055 97.5791 7.99603C97.8121 8.27152 98.0031 8.67402 98.1301 9.16164L101.605 22.4476C101.605 22.4687 101.605 22.4902 101.626 22.5113C101.626 22.5324 101.626 22.5324 101.626 22.5535ZM95.5237 9.81851C95.5026 9.69117 95.46 9.60638 95.4178 9.54303C95.3753 9.50047 95.2905 9.47936 95.1846 9.47936C95.0787 9.47936 94.9939 9.50047 94.9516 9.54303C94.9091 9.60638 94.8668 9.69117 94.8457 9.81851L93.3198 16.1118H97.0493L95.5237 9.81851ZM115.527 22.0662C115.527 22.2995 115.442 22.5113 115.294 22.6594C115.124 22.829 114.913 22.9138 114.679 22.9138H112.539C112.285 22.9138 112.052 22.8716 111.84 22.8079C111.607 22.7442 111.416 22.5324 111.247 22.151L106.542 11.8314C106.479 11.7255 106.415 11.6618 106.352 11.6618C106.288 11.6618 106.246 11.7255 106.246 11.8314V22.4902C106.246 22.5961 106.203 22.702 106.14 22.7868C106.055 22.8716 105.949 22.9138 105.843 22.9138H104.042C103.936 22.9138 103.83 22.8716 103.745 22.7868C103.661 22.702 103.618 22.5961 103.618 22.4902V8.01714C103.618 7.78422 103.703 7.57241 103.872 7.40283C104.021 7.25437 104.233 7.16958 104.466 7.16958H106.754C106.988 7.16958 107.157 7.21213 107.305 7.29692C107.433 7.38139 107.56 7.57241 107.687 7.84757L112.624 18.7393C112.666 18.8452 112.73 18.9089 112.794 18.9089C112.857 18.9089 112.899 18.8452 112.899 18.7182V7.57241C112.899 7.29692 113.027 7.16958 113.302 7.16958H115.124C115.4 7.16958 115.527 7.29692 115.527 7.57241V22.0662ZM128.072 22.2569C128.072 22.4054 128.029 22.5113 127.945 22.575C127.86 22.6383 127.754 22.702 127.605 22.7442C127.521 22.7653 127.372 22.8079 127.181 22.829C126.97 22.8716 126.715 22.9138 126.419 22.9564C126.122 22.9775 125.783 23.0197 125.423 23.0408C125.063 23.0623 124.66 23.0834 124.257 23.0834C123.622 23.0834 122.944 22.9986 122.244 22.8079C121.545 22.6172 120.888 22.278 120.316 21.7907C119.723 21.3034 119.256 20.6466 118.854 19.8201C118.472 18.9937 118.282 17.9128 118.282 16.5991V13.4843C118.282 12.1494 118.472 11.0686 118.854 10.221C119.256 9.39457 119.723 8.7377 120.316 8.2504C120.888 7.76311 121.545 7.44506 122.244 7.25436C122.944 7.08478 123.622 7 124.257 7C124.66 7 125.063 7.02144 125.423 7.04255C125.783 7.06367 126.122 7.10623 126.419 7.12734C126.715 7.16958 126.97 7.21213 127.181 7.25436C127.372 7.29692 127.521 7.31804 127.605 7.33916C127.754 7.38139 127.86 7.42394 127.945 7.48761C128.029 7.55096 128.072 7.67831 128.072 7.82645V9.24643C128.072 9.37345 128.05 9.47936 127.987 9.56415C127.923 9.64894 127.796 9.69117 127.648 9.69117H127.605C127.415 9.67005 127.203 9.64894 126.948 9.62782C126.673 9.60638 126.398 9.60638 126.101 9.58526C125.804 9.56415 125.507 9.56415 125.19 9.54303C124.872 9.52191 124.575 9.52192 124.3 9.52192C123.855 9.52192 123.431 9.58527 123.071 9.71262C122.689 9.86075 122.371 10.0726 122.096 10.3695C121.821 10.6872 121.609 11.0897 121.46 11.5984C121.312 12.1069 121.227 12.7426 121.227 13.4843V16.5991C121.227 17.3408 121.312 17.9554 121.46 18.4638C121.609 18.9725 121.821 19.3751 122.096 19.6931C122.371 20.0108 122.689 20.2226 123.071 20.35C123.431 20.4981 123.855 20.5618 124.3 20.5618C124.575 20.5618 124.872 20.5618 125.19 20.5407C125.507 20.5192 125.804 20.5192 126.101 20.4981C126.398 20.477 126.673 20.4559 126.948 20.4344C127.203 20.4133 127.415 20.4133 127.605 20.3922H127.648C127.796 20.3922 127.923 20.4344 127.987 20.5192C128.05 20.604 128.072 20.7099 128.072 20.8373V22.2569ZM140.002 22.3417C140.002 22.4902 139.98 22.5961 139.917 22.6594C139.853 22.7231 139.726 22.7653 139.578 22.7868C139.408 22.8079 139.218 22.8501 139.027 22.8716C138.815 22.9138 138.56 22.9563 138.264 22.9775C137.946 22.9986 137.586 23.0408 137.162 23.0623C136.717 23.0834 136.187 23.0834 135.552 23.0834C134.852 23.0834 134.217 23.0197 133.623 22.9138C133.03 22.8079 132.5 22.575 132.076 22.2569C131.631 21.9392 131.271 21.5153 131.017 20.9432C130.763 20.3711 130.635 19.6505 130.635 18.7393V11.3441C130.635 10.4328 130.763 9.71261 131.017 9.1402C131.271 8.56812 131.631 8.12305 132.076 7.80533C132.5 7.48761 133.03 7.27548 133.623 7.16958C134.217 7.06367 134.852 7 135.552 7C136.187 7 136.717 7 137.162 7.02144C137.586 7.04255 137.946 7.08478 138.264 7.10622C138.56 7.12734 138.815 7.16958 139.027 7.19102C139.218 7.23325 139.408 7.27548 139.578 7.29692C139.726 7.31804 139.853 7.36027 139.917 7.42394C139.98 7.48761 140.002 7.59352 140.002 7.74166V9.09797C140.002 9.20387 139.959 9.30978 139.874 9.39457C139.79 9.47936 139.684 9.52192 139.578 9.52192H135.255C134.64 9.52192 134.196 9.64894 133.962 9.90331C133.708 10.1574 133.581 10.6447 133.581 11.3441V13.6327H139.324C139.429 13.6327 139.535 13.675 139.62 13.7598C139.705 13.8446 139.747 13.9505 139.747 14.0564V15.5819C139.747 15.6882 139.705 15.7941 139.62 15.8789C139.535 15.9636 139.429 16.0059 139.324 16.0059H133.581V18.7393C133.581 19.4387 133.708 19.926 133.962 20.1804C134.196 20.4344 134.64 20.5618 135.255 20.5618H139.578C139.684 20.5618 139.79 20.604 139.874 20.6888C139.959 20.7736 140.002 20.8795 140.002 20.9854V22.3417Z" fill="white"/>
<path d="M65.8759 29.9868C65.8759 30.5816 65.7677 31.0816 65.565 31.4867C65.3489 31.8921 65.0653 32.2167 64.7002 32.4597C64.349 32.7167 63.9303 32.8921 63.4706 32.9866C62.9979 33.0948 62.4979 33.149 61.9707 33.149C61.7953 33.149 61.5925 33.1354 61.3492 33.1218C61.1195 33.1084 60.9168 33.1084 60.768 33.0948V36.6215C60.768 36.6891 60.7411 36.7567 60.7005 36.8109C60.6465 36.8648 60.579 36.8918 60.5114 36.8918H59.1603C59.0927 36.8918 59.0251 36.8648 58.9709 36.8109C58.917 36.7567 58.89 36.6891 58.89 36.6215V27.3249C58.89 27.1897 58.9306 27.0952 59.0115 27.0276C59.0791 26.9737 59.1873 26.9331 59.3224 26.9198C59.6736 26.8655 60.079 26.8249 60.5384 26.7846C60.998 26.7573 61.4844 26.744 61.9843 26.744C62.4979 26.744 62.9979 26.7979 63.4706 26.8925C63.9303 26.987 64.349 27.1628 64.7002 27.4061C65.0653 27.6494 65.3489 27.9736 65.565 28.3654C65.7677 28.7709 65.8759 29.2708 65.8759 29.8653V29.9868ZM63.9978 29.8517C63.9978 29.2845 63.8354 28.879 63.4979 28.6494C63.16 28.406 62.6464 28.2845 61.9707 28.2845C61.9031 28.2845 61.8086 28.2845 61.7004 28.2845C61.5789 28.2978 61.4707 28.2978 61.3492 28.2978C61.2277 28.3115 61.1195 28.3115 61.025 28.3115C60.9168 28.3248 60.8356 28.3248 60.768 28.3385V31.5679C60.8223 31.5679 60.9032 31.5679 61.025 31.5679C61.1332 31.5816 61.2547 31.5816 61.3762 31.5816C61.498 31.5949 61.6059 31.5949 61.7277 31.5949C61.8355 31.6085 61.9168 31.6085 61.9707 31.6085C62.7003 31.6085 63.2276 31.4734 63.5382 31.2031C63.8491 30.9328 63.9978 30.5274 63.9978 29.9735V29.8517ZM74.6456 36.7297C74.6456 36.8379 74.5917 36.8918 74.4835 36.8918H72.8348C72.7672 36.8918 72.7133 36.8648 72.6727 36.8109C72.6324 36.7567 72.6051 36.6891 72.5648 36.6215L70.6189 33.0272H70.4298C70.2541 33.0272 70.0377 33.0139 69.808 33.0003C69.5784 32.9866 69.3756 32.9866 69.2272 32.9733V36.6215C69.2272 36.6891 69.1999 36.7567 69.1596 36.8109C69.1054 36.8648 69.0378 36.8918 68.9702 36.8918H67.6191C67.5515 36.8918 67.484 36.8648 67.43 36.8109C67.3758 36.7567 67.3488 36.6891 67.3488 36.6215V27.3249C67.3488 27.1897 67.3894 27.0952 67.4703 27.0276C67.5379 26.9737 67.6461 26.9331 67.7812 26.9198C68.1324 26.8655 68.5378 26.8249 68.9975 26.7846C69.4569 26.7573 69.9432 26.744 70.4431 26.744C70.9568 26.744 71.4567 26.7979 71.9297 26.8925C72.3891 27.0007 72.8078 27.1764 73.1593 27.4061C73.5242 27.6358 73.8078 27.9467 74.0241 28.3385C74.2268 28.7302 74.3347 29.2169 74.3347 29.7977V29.9192C74.3347 30.6356 74.1726 31.2301 73.8347 31.6761C73.5105 32.1218 73.0645 32.4597 72.4973 32.676L74.6186 36.6215C74.6319 36.6488 74.6456 36.6891 74.6456 36.7297ZM72.4567 29.7977C72.4567 29.2845 72.2945 28.9196 71.9567 28.6896C71.6188 28.46 71.1052 28.3521 70.4298 28.3521C70.3623 28.3521 70.2674 28.3521 70.1595 28.3521C70.0377 28.3654 69.9299 28.3654 69.808 28.3654C69.6865 28.3791 69.5784 28.3791 69.4838 28.3791C69.3756 28.3924 69.2948 28.3924 69.2272 28.406V31.4464C69.2811 31.4464 69.3623 31.4464 69.4838 31.4464C69.592 31.4597 69.7135 31.4598 69.835 31.4598C69.9568 31.4734 70.0647 31.4734 70.1865 31.4734C70.2947 31.4867 70.3756 31.4867 70.4298 31.4867C71.1322 31.4867 71.6458 31.3789 71.97 31.1492C72.2945 30.9195 72.4567 30.5141 72.4567 29.9192V29.7977Z" fill="#5C8EE6"/>
<path d="M83.3208 32.7842C83.3208 33.5272 83.2259 34.176 83.0368 34.7029C82.8341 35.2298 82.5775 35.6622 82.226 36.0001C81.8884 36.3379 81.483 36.5946 81.01 36.7567C80.5507 36.9188 80.037 37 79.4831 37C78.9156 37 78.402 36.9188 77.9426 36.7567C77.4696 36.5946 77.0642 36.3379 76.7267 36.0001C76.3888 35.6622 76.1185 35.2298 75.9291 34.7029C75.7264 34.176 75.6319 33.5272 75.6319 32.7842V30.9598C75.6319 30.2168 75.7264 29.5817 75.9291 29.0411C76.1185 28.5142 76.3888 28.0682 76.7267 27.7303C77.0642 27.3925 77.4696 27.1495 77.9426 26.987C78.402 26.8249 78.9156 26.744 79.4831 26.744C80.037 26.744 80.5507 26.8249 81.01 26.987C81.483 27.1495 81.8884 27.3925 82.226 27.7303C82.5775 28.0682 82.8341 28.5142 83.0368 29.0411C83.2259 29.5817 83.3208 30.2168 83.3208 30.9598V32.7842ZM81.4424 30.9598C81.4424 30.0544 81.2803 29.406 80.9561 28.9869C80.6452 28.5818 80.1452 28.3791 79.4831 28.3791C78.8074 28.3791 78.3075 28.5818 77.9966 28.9869C77.6724 29.406 77.5102 30.0544 77.5102 30.9598V32.7842C77.5102 33.6893 77.6724 34.3381 77.9966 34.7435C78.3075 35.1623 78.8074 35.365 79.4831 35.365C80.1452 35.365 80.6452 35.1623 80.9561 34.7435C81.2803 34.3381 81.4424 33.6893 81.4424 32.7842V30.9598ZM92.3604 32.8651C92.3604 34.2029 91.9956 35.2298 91.2523 35.9325C90.5227 36.6488 89.4688 37 88.1177 37C87.8607 37 87.6177 37 87.3475 36.9864C87.0772 36.9731 86.8205 36.9594 86.5772 36.9461C86.3202 36.9324 86.1042 36.9055 85.9015 36.8918C85.6988 36.8785 85.5367 36.8512 85.4421 36.8379C85.3206 36.8243 85.2394 36.784 85.1855 36.7164C85.1179 36.6488 85.0906 36.554 85.0906 36.4188V27.3249C85.0906 27.1897 85.1179 27.0952 85.1855 27.0276C85.2394 26.9601 85.3206 26.9198 85.4421 26.9061C85.5367 26.8925 85.6988 26.8655 85.9015 26.8522C86.1042 26.8386 86.3202 26.8116 86.5772 26.798C86.8205 26.7846 87.0772 26.771 87.3475 26.7573C87.6177 26.744 87.8607 26.744 88.1177 26.744C89.4688 26.744 90.5227 27.0952 91.2523 27.7979C91.9956 28.5142 92.3604 29.5411 92.3604 30.8789V32.8651ZM90.4824 30.8789C90.4824 30.3789 90.4281 29.9599 90.3066 29.6356C90.1851 29.2978 90.0094 29.0411 89.8067 28.8384C89.5903 28.6494 89.3337 28.5142 89.0501 28.433C88.7528 28.3654 88.4419 28.3248 88.1041 28.3248C87.8474 28.3248 87.6311 28.3248 87.4553 28.3385C87.2799 28.3521 87.1178 28.3521 86.969 28.3654V35.3919C87.1178 35.4056 87.2799 35.4056 87.4553 35.4189C87.6311 35.4325 87.8474 35.4325 88.1041 35.4325C88.4419 35.4325 88.7528 35.3919 89.0501 35.3111C89.3337 35.2435 89.5903 35.1083 89.8067 34.9056C90.0094 34.7165 90.1851 34.4596 90.3066 34.1217C90.4281 33.7975 90.4824 33.3787 90.4824 32.8788V30.8789ZM101.468 33.176C101.468 33.892 101.373 34.5002 101.198 34.9865C101.009 35.4732 100.752 35.8649 100.427 36.1622C100.09 36.4594 99.6978 36.6758 99.2518 36.7973C98.7924 36.9325 98.2925 37 97.7519 37C97.2116 37 96.7117 36.9325 96.2656 36.7973C95.8063 36.6758 95.4145 36.4594 95.0899 36.1622C94.7521 35.8649 94.4954 35.4732 94.3197 34.9865C94.1306 34.5002 94.0361 33.892 94.0361 33.176V27.1088C94.0361 27.0413 94.063 26.9737 94.1173 26.9198C94.1712 26.8792 94.2388 26.8522 94.3064 26.8522H95.6442C95.7117 26.8522 95.7793 26.8792 95.8332 26.9198C95.8872 26.9737 95.9144 27.0413 95.9144 27.1088V33.1894C95.9144 33.5678 95.9414 33.9057 95.9953 34.1893C96.0496 34.4732 96.1441 34.7165 96.2926 34.9056C96.4277 35.0947 96.6168 35.2298 96.8468 35.3244C97.0765 35.4189 97.3871 35.4595 97.7519 35.4595C98.117 35.4595 98.4143 35.4189 98.6573 35.3244C98.887 35.2298 99.0764 35.0947 99.2248 34.9056C99.36 34.7165 99.4545 34.4732 99.5087 34.1893C99.5627 33.9057 99.5896 33.5678 99.5896 33.1894V27.1088C99.5896 27.0413 99.6169 26.9737 99.6709 26.9198C99.7248 26.8792 99.7924 26.8522 99.8599 26.8522H101.198C101.265 26.8522 101.333 26.8792 101.387 26.9198C101.441 26.9737 101.468 27.0413 101.468 27.1088V33.176ZM109.4 36.4731C109.4 36.5676 109.373 36.6352 109.319 36.6758C109.265 36.7164 109.197 36.7567 109.103 36.784C109.048 36.7973 108.954 36.8243 108.832 36.8379C108.697 36.8649 108.535 36.8918 108.346 36.9188C108.157 36.9325 107.941 36.9594 107.711 36.9731C107.481 36.9864 107.224 37 106.968 37C106.562 37 106.13 36.9461 105.684 36.8243C105.238 36.7028 104.819 36.4864 104.454 36.1758C104.076 35.8649 103.779 35.4462 103.522 34.9189C103.279 34.392 103.157 33.703 103.157 32.8651V30.8789C103.157 30.0274 103.279 29.3384 103.522 28.7978C103.779 28.2709 104.076 27.8521 104.454 27.5412C104.819 27.2303 105.238 27.0276 105.684 26.9061C106.13 26.798 106.562 26.744 106.968 26.744C107.224 26.744 107.481 26.7573 107.711 26.771C107.941 26.7846 108.157 26.8116 108.346 26.8249C108.535 26.8522 108.697 26.8792 108.832 26.9061C108.954 26.9331 109.048 26.9467 109.103 26.9601C109.197 26.987 109.265 27.0143 109.319 27.0546C109.373 27.0952 109.4 27.1764 109.4 27.271V28.1764C109.4 28.2572 109.386 28.3248 109.346 28.3791C109.305 28.433 109.224 28.46 109.13 28.46H109.103C108.981 28.4466 108.846 28.433 108.684 28.4194C108.508 28.406 108.332 28.406 108.143 28.3924C107.954 28.3791 107.765 28.3791 107.562 28.3654C107.359 28.3521 107.17 28.3521 106.995 28.3521C106.711 28.3521 106.441 28.3924 106.211 28.4736C105.968 28.5681 105.765 28.7033 105.589 28.8924C105.413 29.0951 105.278 29.352 105.184 29.6763C105.089 30.0005 105.035 30.4059 105.035 30.8789V32.8651C105.035 33.3381 105.089 33.7299 105.184 34.0541C105.278 34.3787 105.413 34.6353 105.589 34.838C105.765 35.0408 105.968 35.1759 106.211 35.2568C106.441 35.3513 106.711 35.3919 106.995 35.3919C107.17 35.3919 107.359 35.3919 107.562 35.3786C107.765 35.365 107.954 35.365 108.143 35.3513C108.332 35.338 108.508 35.3244 108.684 35.3111C108.846 35.2974 108.981 35.2974 109.103 35.2838H109.13C109.224 35.2838 109.305 35.311 109.346 35.365C109.386 35.4189 109.4 35.4865 109.4 35.5677V36.4731ZM117.508 28.1764C117.508 28.2439 117.48 28.3115 117.426 28.3521C117.372 28.3924 117.305 28.4194 117.237 28.4194H114.873V36.6216C114.873 36.6891 114.845 36.7567 114.791 36.811C114.737 36.8649 114.67 36.8918 114.602 36.8918H113.264C113.197 36.8918 113.129 36.8649 113.075 36.811C113.021 36.7567 112.994 36.6891 112.994 36.6216V28.4194H110.63C110.562 28.4194 110.494 28.3924 110.44 28.3521C110.386 28.3115 110.359 28.2439 110.359 28.1764V27.1088C110.359 27.0413 110.386 26.9737 110.44 26.9198C110.494 26.8792 110.562 26.8522 110.63 26.8522H117.237C117.305 26.8522 117.372 26.8792 117.426 26.9198C117.48 26.9737 117.508 27.0413 117.508 27.1088V28.1764ZM120.737 36.6216C120.737 36.6891 120.71 36.7567 120.656 36.811C120.602 36.8649 120.534 36.8918 120.467 36.8918H119.129C119.061 36.8918 118.994 36.8649 118.94 36.811C118.886 36.7567 118.859 36.6891 118.859 36.6216V27.1088C118.859 27.0413 118.886 26.9737 118.94 26.9198C118.994 26.8792 119.061 26.8522 119.129 26.8522H120.467C120.534 26.8522 120.602 26.8792 120.656 26.9198C120.71 26.9737 120.737 27.0413 120.737 27.1088V36.6216ZM130.182 32.7842C130.182 33.5272 130.088 34.176 129.898 34.7029C129.696 35.2298 129.439 35.6622 129.088 36.0001C128.75 36.3379 128.344 36.5946 127.871 36.7567C127.412 36.9188 126.899 37 126.344 37C125.777 37 125.264 36.9188 124.804 36.7567C124.331 36.5946 123.926 36.3379 123.588 36.0001C123.25 35.6622 122.98 35.2298 122.791 34.7029C122.588 34.176 122.494 33.5272 122.494 32.7842V30.9598C122.494 30.2168 122.588 29.5817 122.791 29.0411C122.98 28.5142 123.25 28.0682 123.588 27.7303C123.926 27.3925 124.331 27.1495 124.804 26.987C125.264 26.8249 125.777 26.744 126.344 26.744C126.899 26.744 127.412 26.8249 127.871 26.987C128.344 27.1495 128.75 27.3925 129.088 27.7303C129.439 28.0682 129.696 28.5142 129.898 29.0411C130.088 29.5817 130.182 30.2168 130.182 30.9598V32.7842ZM128.304 30.9598C128.304 30.0544 128.142 29.406 127.817 28.9869C127.507 28.5818 127.007 28.3791 126.344 28.3791C125.669 28.3791 125.169 28.5818 124.858 28.9869C124.534 29.406 124.372 30.0544 124.372 30.9598V32.7842C124.372 33.6893 124.534 34.3381 124.858 34.7435C125.169 35.1623 125.669 35.365 126.344 35.365C127.007 35.365 127.507 35.1623 127.817 34.7435C128.142 34.3381 128.304 33.6893 128.304 32.7842V30.9598ZM139.546 36.3516C139.546 36.5001 139.492 36.6352 139.398 36.7297C139.29 36.8379 139.155 36.8918 139.006 36.8918H137.641C137.479 36.8918 137.33 36.8649 137.195 36.8243C137.046 36.784 136.925 36.6488 136.817 36.4055L133.817 29.8247C133.776 29.7571 133.736 29.7169 133.696 29.7169C133.655 29.7169 133.628 29.7571 133.628 29.8247V36.6216C133.628 36.6891 133.601 36.7567 133.56 36.811C133.506 36.8649 133.439 36.8918 133.371 36.8918H132.223C132.155 36.8918 132.087 36.8649 132.033 36.811C131.979 36.7567 131.952 36.6891 131.952 36.6216V27.3925C131.952 27.244 132.006 27.1088 132.114 27.0007C132.209 26.9061 132.344 26.8522 132.493 26.8522H133.952C134.101 26.8522 134.209 26.8792 134.303 26.9331C134.385 26.987 134.465 27.1088 134.547 27.2846L137.695 34.2299C137.722 34.2975 137.763 34.3381 137.803 34.3381C137.844 34.3381 137.871 34.2975 137.871 34.2166V27.1088C137.871 26.9331 137.952 26.8522 138.128 26.8522H139.29C139.465 26.8522 139.546 26.9331 139.546 27.1088V36.3516Z" fill="#5C8EE6"/>
</g>
<defs>
<clipPath id="lclip0_191_1609">
<rect width="140" height="44" fill="white"/>
</clipPath>
</defs>
</symbol><symbol viewBox="0 0 21 28" fill="none" id="m1" xmlns="http://www.w3.org/2000/svg">
<path d="M20.125 1.75H20.3438C20.6719 1.75 21 1.47656 21 1.09375V0.65625C21 0.328125 20.6719 0 20.3438 0H0.65625C0.273438 0 0 0.328125 0 0.65625V1.09375C0 1.47656 0.273438 1.75 0.65625 1.75H0.875C0.875 6.78125 3.28125 12.3594 7.92969 14C3.22656 15.6953 0.875 21.2734 0.875 26.25H0.65625C0.273438 26.25 0 26.5781 0 26.9062V27.3438C0 27.7266 0.273438 28 0.65625 28H20.3438C20.6719 28 21 27.7266 21 27.3438V26.9062C21 26.5781 20.6719 26.25 20.3438 26.25H20.125C20.125 21.2734 17.6641 15.6953 13.0156 14C17.7188 12.3594 20.125 6.78125 20.125 1.75ZM2.625 1.75H18.375C18.375 7.82031 14.8203 12.6875 10.5 12.6875C6.125 12.6875 2.625 7.82031 2.625 1.75ZM18.375 26.25H2.625C2.625 20.2344 6.125 15.3125 10.5 15.3125C14.8203 15.3125 18.375 20.2344 18.375 26.25ZM14.7109 8.03906C15.0391 7.65625 14.7109 7 14.1641 7H6.78125C6.23438 7 5.90625 7.65625 6.23438 8.03906C6.34375 8.20312 6.45312 8.36719 6.61719 8.53125C6.72656 8.69531 6.89062 8.75 7.10938 8.75H13.8359C14.0547 8.75 14.2188 8.69531 14.3281 8.53125C14.4922 8.36719 14.6016 8.20312 14.7109 8.03906ZM5.35938 22.75C5.03125 22.75 4.8125 22.9688 4.70312 23.2422C4.70312 23.4062 4.64844 23.5703 4.59375 23.7344C4.53906 24.1172 4.8125 24.5 5.25 24.5H15.6953C16.1328 24.5 16.4062 24.1172 16.3516 23.7344C16.2969 23.5703 16.2422 23.4062 16.2422 23.2422C16.1328 22.9688 15.9141 22.75 15.5859 22.75H5.35938Z" fill="#5C8EE6"/>
</symbol><symbol viewBox="0 0 29 29" fill="none" id="m2" xmlns="http://www.w3.org/2000/svg">
<path d="M27.2216 5.35938L22.6825 0.820312C22.1903 0.328125 21.4794 0 20.8232 0H9.66691C8.19035 0.0546875 7.04191 1.20312 7.04191 2.67969V9.07812C6.71379 9.07812 6.38566 9.02344 5.67473 8.80469C5.62004 8.80469 5.51066 8.80469 5.40129 8.80469C5.12785 8.80469 4.85441 8.91406 4.69035 9.07812C3.70598 10.1172 3.76066 10.0625 2.39348 10.4453C2.01066 10.5547 1.73723 10.8281 1.62785 11.2109C1.29973 12.5781 1.29973 12.5234 0.31535 13.5078C0.0419129 13.7812 -0.0674621 14.2188 0.0419129 14.6016C0.424725 15.9141 0.424725 15.9141 0.0419129 17.2266C-0.0674621 17.6094 0.0419129 18.0469 0.31535 18.3203C1.29973 19.3047 1.29973 19.3047 1.62785 20.6172C1.73723 21 2.01066 21.2734 2.39348 21.3828C2.50285 21.4375 2.55754 21.4375 2.66691 21.4375V27.125C2.66691 27.4531 2.77629 27.7266 3.04973 27.8906C3.32316 28.0547 3.65129 28.0547 3.92473 27.9453L7.04191 26.3594L10.1044 27.9453C10.2685 28 10.3779 28 10.5419 28H25.4169C26.8388 28 28.0419 26.8516 28.0419 25.4297V7.21875C28.0419 6.5625 27.7138 5.85156 27.2216 5.35938ZM21.0419 1.80469C21.1513 1.85938 21.3153 1.91406 21.4247 2.02344L26.0185 6.61719C26.1278 6.72656 26.1825 6.89062 26.2372 7.05469H21.0419V1.80469ZM1.8466 17.3359C2.12004 16.1328 2.12004 15.6953 1.8466 14.4922C2.66691 13.6172 2.88566 13.2344 3.21379 12.0312C4.41691 11.7031 4.74504 11.4844 5.62004 10.6094C6.16691 10.7734 6.54973 10.8281 7.04191 10.8281C7.47941 10.8281 7.86223 10.7734 8.4091 10.6094C9.22941 11.4844 9.61223 11.7031 10.8154 12.0312C11.1435 13.2344 11.3075 13.5625 12.1825 14.4922C11.8544 15.6953 11.8544 16.1328 12.1825 17.3359C11.3622 18.2109 11.1435 18.5938 10.8154 19.7969C9.99504 20.0156 9.50285 20.1797 8.73723 20.8359C8.19035 20.6172 7.64348 20.5078 7.04191 20.5078C6.38566 20.5078 5.83879 20.6172 5.29191 20.8906C4.52629 20.2344 4.0341 20.0156 3.21379 19.7969C2.88566 18.5938 2.7216 18.2656 1.8466 17.3359ZM7.42473 24.6094C7.15129 24.5 6.87785 24.5 6.60441 24.6094L4.41691 25.7578V22.4219C4.41691 22.4766 4.41691 22.4766 4.41691 22.4766C4.63566 22.6953 4.9091 22.75 5.12785 22.75C5.3466 22.75 5.51066 22.6953 5.72941 22.6406C6.11223 22.3672 6.54973 22.2578 7.04191 22.2578C7.47941 22.2578 7.91691 22.3672 8.29973 22.5859C8.51848 22.75 8.68254 22.75 8.90129 22.75C9.17473 22.75 9.39348 22.6953 9.61223 22.4766C9.61223 22.4766 9.61223 22.4766 9.66691 22.4219V25.7578L7.42473 24.6094ZM26.2919 25.4297C26.2919 25.8672 25.8544 26.3047 25.4169 26.3047H11.4169V21.4375C11.4716 21.4375 11.5263 21.4375 11.6357 21.3828C12.0185 21.2734 12.2919 21 12.4013 20.6172C12.7294 19.25 12.7294 19.3047 13.7138 18.3203C13.9872 18.0469 14.0966 17.6094 13.9872 17.2266C13.6044 15.9141 13.6044 15.9141 13.9872 14.6016C14.0966 14.2188 13.9872 13.7812 13.7138 13.5078C12.7294 12.5234 12.7294 12.5234 12.4013 11.2109C12.2919 10.8281 12.0185 10.5547 11.6357 10.4453C10.3232 10.0625 10.3232 10.1172 9.33879 9.07812C9.17473 8.91406 8.95598 8.85938 8.79191 8.80469V2.67969C8.79191 2.1875 9.17473 1.75 9.66691 1.75H19.2919V7.49219C19.2919 8.20312 19.8388 8.75 20.6044 8.75H26.2919V25.4297Z" fill="#5C8EE6"/>
</symbol><symbol viewBox="0 0 25 28" fill="none" id="m3" xmlns="http://www.w3.org/2000/svg">
<path d="M17.1172 19.25C15.5312 19.25 14.8203 20.125 12.25 20.125C9.625 20.125 8.91406 19.25 7.32812 19.25C3.28125 19.25 0 22.5859 0 26.6328C0 27.3984 0.601562 28 1.36719 28H23.0781C23.8438 28 24.5 27.3984 24.5 26.6328C24.5 22.5859 21.1641 19.25 17.1172 19.25ZM1.75 26.25C1.91406 23.3516 4.375 21.0547 7.32812 21C8.42188 21 9.46094 21.875 12.25 21.875C15.0391 21.875 16.0234 21 17.1172 21C20.0703 21.0547 22.5312 23.3516 22.6953 26.25H1.75ZM4.8125 8.75H5.46875C5.30469 9.35156 5.25 9.89844 5.25 10.5C5.25 14.3828 8.36719 17.5 12.25 17.5C16.0781 17.5 19.25 14.3828 19.25 10.5C19.1953 9.89844 19.1406 9.35156 18.9766 8.75H19.6875C19.9062 8.75 20.125 8.58594 20.125 8.3125V7.4375C20.125 7.21875 19.9062 7 19.6875 7H19.25C19.25 4.21094 17.3359 1.85938 14.7109 1.14844C14.4922 0.492188 13.8359 0.0546875 13.125 0H11.375C10.6094 0.0546875 9.95312 0.492188 9.73438 1.14844C7.16406 1.85938 5.25 4.21094 5.25 7H4.8125C4.53906 7 4.375 7.21875 4.375 7.4375V8.3125C4.375 8.58594 4.53906 8.75 4.8125 8.75ZM14.875 3.00781C16.4062 3.71875 17.4453 5.25 17.5 7H14.875V3.00781ZM11.375 1.75H13.125V7H11.375V1.75ZM7 7C7 5.25 8.03906 3.71875 9.625 3.00781V7H7ZM7.32812 8.75H17.1719C17.3359 9.29688 17.4453 9.89844 17.5 10.5C17.5 13.3984 15.0938 15.75 12.25 15.75C9.35156 15.75 7 13.3984 7 10.5C7 9.89844 7.10938 9.29688 7.32812 8.75Z" fill="#5C8EE6"/>
</symbol><symbol viewBox="0 0 35 26" fill="none" id="m4" xmlns="http://www.w3.org/2000/svg">
<path d="M1.75 16.5H20.125C21.0547 16.5 21.875 15.7344 21.875 14.75V2.5C21.875 1.57031 21.0547 0.75 20.125 0.75H1.75C0.765625 0.75 0 1.57031 0 2.5V14.75C0 15.7344 0.765625 16.5 1.75 16.5ZM1.75 2.5H20.125V14.75H1.75V2.5ZM33.9609 10.2656L30.7344 7.03906C30.0781 6.38281 29.2031 6.05469 28.2734 6.05469H24.5C24.0078 6.05469 23.625 6.4375 23.625 6.92969V18.3047H12.4688C11.8125 17.7578 10.9922 17.4297 10.0625 17.4297C8.80469 17.4297 7.71094 17.9766 7 18.9062C6.23438 17.9766 5.14062 17.375 3.9375 17.375C1.75 17.375 0 19.1797 0 21.3125C0 23.5 1.75 25.25 3.9375 25.25C5.14062 25.25 6.23438 24.7031 7 23.7734C7.71094 24.7031 8.80469 25.25 10.0625 25.25C12.1953 25.25 14 23.5 14 21.3125C14 20.875 13.8906 20.4375 13.7266 20H24.5547C24.3906 20.7656 24.4453 21.5312 24.7188 22.3516C25.1562 23.7188 26.3594 24.8125 27.7812 25.1406C30.625 25.8516 33.25 23.6641 33.25 20.875C33.25 20.6016 33.1953 20.3281 33.1406 20H34.125C34.5625 20 35 19.6172 35 19.125V12.7266C35 11.7969 34.6172 10.9219 33.9609 10.2656ZM3.9375 23.5C2.67969 23.5 1.75 22.5703 1.75 21.3125C1.75 20.1094 2.67969 19.125 3.9375 19.125C5.14062 19.125 6.125 20.1094 6.125 21.3125C6.125 22.5703 5.14062 23.5 3.9375 23.5ZM10.0625 23.5C8.80469 23.5 7.875 22.5703 7.875 21.3125C7.875 20.1094 8.80469 19.125 10.0625 19.125C11.2656 19.125 12.25 20.1094 12.25 21.3125C12.25 22.5703 11.2656 23.5 10.0625 23.5ZM25.375 7.75H28.2734C28.7656 7.75 29.2031 7.96875 29.5312 8.29688L32.4844 11.25H25.375V7.75ZM28.875 23.5C27.3984 23.5 26.25 22.3516 26.25 20.875C26.25 19.4531 27.3984 18.25 28.875 18.25C30.2969 18.25 31.5 19.4531 31.5 20.875C31.5 22.3516 30.2969 23.5 28.875 23.5ZM33.25 18.25H32.3203C31.5547 17.2109 30.2969 16.5 28.875 16.5C27.3984 16.5 26.1953 17.2109 25.375 18.25V13H33.25V18.25ZM5.6875 13H6.5625C6.78125 13 7 12.8359 7 12.5625V4.6875C7 4.46875 6.78125 4.25 6.5625 4.25H5.6875C5.41406 4.25 5.25 4.46875 5.25 4.6875V12.5625C5.25 12.8359 5.41406 13 5.6875 13ZM10.9375 13H11.8125C12.0312 13 12.25 12.8359 12.25 12.5625V4.6875C12.25 4.46875 12.0312 4.25 11.8125 4.25H10.9375C10.6641 4.25 10.5 4.46875 10.5 4.6875V12.5625C10.5 12.8359 10.6641 13 10.9375 13ZM16.1875 13H17.0625C17.2812 13 17.5 12.8359 17.5 12.5625V4.6875C17.5 4.46875 17.2812 4.25 17.0625 4.25H16.1875C15.9141 4.25 15.75 4.46875 15.75 4.6875V12.5625C15.75 12.8359 15.9141 13 16.1875 13Z" fill="#5C8EE6"/>
</symbol><symbol viewBox="0 0 32 25" fill="none" id="m5" xmlns="http://www.w3.org/2000/svg">
<path d="M9.625 7.875C8.64062 7.875 7.875 8.69531 7.875 9.625C7.875 10.6094 8.64062 11.375 9.625 11.375C10.5547 11.375 11.375 10.6094 11.375 9.625C11.375 8.69531 10.5547 7.875 9.625 7.875ZM15.75 0C7.05469 0 0 7.05469 0 15.75C0 18.6484 0.765625 21.3828 2.13281 23.6797C2.40625 24.2266 3.00781 24.5547 3.60938 24.5547H27.8359C28.4375 24.5547 29.0391 24.2266 29.3672 23.6797C30.6797 21.3828 31.5 18.6484 31.5 15.75C31.5 7.05469 24.4453 0 15.75 0ZM15.75 21.875C14.4922 21.875 13.5625 20.9453 13.5625 19.6875C13.5625 18.4844 14.4922 17.5 15.75 17.5C16.9531 17.5 17.9375 18.4844 17.9375 19.6875C17.9375 20.9453 16.9531 21.875 15.75 21.875ZM27.3438 21.875H20.0156C20.3438 21.2188 20.5625 20.5078 20.5625 19.6875C20.5625 19.3594 20.5078 19.0312 20.3984 18.7031L25.4297 16.5703C26.0859 16.2422 26.4141 15.4766 26.1406 14.8203C25.8125 14.1641 25.0469 13.8359 24.3906 14.1094L19.1953 16.3516C18.3203 15.4766 17.0625 14.875 15.75 14.875C13.0703 14.875 10.9375 17.0625 10.9375 19.6875C10.9375 20.5078 11.1016 21.2188 11.4844 21.875H4.10156C3.11719 20.0156 2.625 17.9375 2.625 15.75C2.625 8.53125 8.47656 2.625 15.75 2.625C22.9688 2.625 28.875 8.53125 28.875 15.75C28.875 17.9375 28.3281 20.0156 27.3438 21.875ZM7 14C6.01562 14 5.25 14.8203 5.25 15.75C5.25 16.7344 6.01562 17.5 7 17.5C7.92969 17.5 8.75 16.7344 8.75 15.75C8.75 14.8203 7.92969 14 7 14ZM15.75 5.25C14.7656 5.25 14 6.07031 14 7C14 7.98438 14.7656 8.75 15.75 8.75C16.6797 8.75 17.5 7.98438 17.5 7C17.5 6.07031 16.6797 5.25 15.75 5.25ZM21.875 7.875C20.8906 7.875 20.125 8.69531 20.125 9.625C20.125 10.6094 20.8906 11.375 21.875 11.375C22.8047 11.375 23.625 10.6094 23.625 9.625C23.625 8.69531 22.8047 7.875 21.875 7.875Z" fill="#5C8EE6"/>
</symbol><symbol viewBox="0 0 16 12" fill="none" id="mail" xmlns="http://www.w3.org/2000/svg">
<path d="M0.3125 3.96875C1.03125 4.53125 1.9375 5.21875 5.125 7.53125C5.75 8 6.90625 9.03125 8 9.03125C9.125 9.03125 10.25 8 10.9062 7.53125C14.0938 5.21875 15 4.53125 15.7188 3.96875C15.8438 3.875 16 3.96875 16 4.125V10.5C16 11.3438 15.3438 12 14.5 12H1.5C0.6875 12 0 11.3438 0 10.5V4.125C0 3.96875 0.1875 3.875 0.3125 3.96875ZM8 8C7.28125 8.03125 6.25 7.09375 5.71875 6.71875C1.5625 3.71875 1.25 3.4375 0.3125 2.6875C0.125 2.5625 0 2.34375 0 2.09375V1.5C0 0.6875 0.6875 0 1.5 0H14.5C15.3438 0 16 0.6875 16 1.5V2.09375C16 2.34375 15.9062 2.5625 15.7188 2.6875C14.7812 3.4375 14.4688 3.71875 10.3125 6.71875C9.78125 7.09375 8.75 8.03125 8 8Z" fill="#5C8EE6"/>
</symbol><symbol viewBox="0 0 12 17" fill="none" id="map" xmlns="http://www.w3.org/2000/svg">
<path d="M6.625 15.6875C6.34375 16.125 5.6875 16.125 5.40625 15.6875C0.84375 9.125 0 8.4375 0 6C0 2.6875 2.6875 0 6 0C9.34375 0 12 2.6875 12 6C12 8.4375 11.1875 9.125 6.625 15.6875ZM6 8.5C7.40625 8.5 8.5 7.40625 8.5 6C8.5 4.625 7.40625 3.5 6 3.5C4.625 3.5 3.5 4.625 3.5 6C3.5 7.40625 4.625 8.5 6 8.5Z" fill="#5C8EE6"/>
</symbol><symbol viewBox="0 0 16 17" fill="none" id="phone" xmlns="http://www.w3.org/2000/svg">
<path d="M15.9688 12.0822L15.2188 15.2384C15.125 15.7072 14.75 16.0197 14.2812 16.0197C6.40625 15.9884 0 9.58218 0 1.70718C0 1.23843 0.28125 0.86343 0.75 0.76968L3.90625 0.0196803C4.34375 -0.0740697 4.8125 0.17593 5 0.58218L6.46875 3.98843C6.625 4.39468 6.53125 4.86343 6.1875 5.11343L4.5 6.48843C5.5625 8.64468 7.3125 10.3947 9.5 11.4572L10.875 9.76968C11.125 9.45718 11.5938 9.33218 12 9.48843L15.4062 10.9572C15.8125 11.1759 16.0625 11.6447 15.9688 12.0822Z" fill="#5C8EE6"/>
</symbol><symbol viewBox="0 0 16 17" fill="none" id="phone-light" xmlns="http://www.w3.org/2000/svg">
<path d="M15.9688 12.0822L15.2188 15.2384C15.125 15.7072 14.75 16.0197 14.2812 16.0197C6.40625 15.9884 0 9.58218 0 1.70718C0 1.23843 0.28125 0.86343 0.75 0.76968L3.90625 0.0196803C4.34375 -0.0740697 4.8125 0.17593 5 0.58218L6.46875 3.98843C6.625 4.39468 6.53125 4.86343 6.1875 5.11343L4.5 6.48843C5.5625 8.64468 7.3125 10.3947 9.5 11.4572L10.875 9.76968C11.125 9.45718 11.5938 9.33218 12 9.48843L15.4062 10.9572C15.8125 11.1759 16.0625 11.6447 15.9688 12.0822Z" fill="white"/>
</symbol><symbol viewBox="0 0 16 16" fill="none" id="svg" xmlns="http://www.w3.org/2000/svg">
<path d="M4.44444 0C1.99378 0 0 1.99378 0 4.44444V11.5556C0 14.0062 1.99378 16 4.44444 16H11.5556C14.0062 16 16 14.0062 16 11.5556V4.44444C16 1.99378 14.0062 0 11.5556 0H4.44444ZM4.44444 1.77778H11.5556C13.0258 1.77778 14.2222 2.97422 14.2222 4.44444V11.5556C14.2222 13.0258 13.0258 14.2222 11.5556 14.2222H4.44444C2.97422 14.2222 1.77778 13.0258 1.77778 11.5556V4.44444C1.77778 2.97422 2.97422 1.77778 4.44444 1.77778ZM12.4444 2.66667C12.2087 2.66667 11.9826 2.76032 11.8159 2.92702C11.6492 3.09372 11.5556 3.31981 11.5556 3.55556C11.5556 3.7913 11.6492 4.0174 11.8159 4.18409C11.9826 4.35079 12.2087 4.44444 12.4444 4.44444C12.6802 4.44444 12.9063 4.35079 13.073 4.18409C13.2397 4.0174 13.3333 3.7913 13.3333 3.55556C13.3333 3.31981 13.2397 3.09372 13.073 2.92702C12.9063 2.76032 12.6802 2.66667 12.4444 2.66667ZM8 3.55556C5.54933 3.55556 3.55556 5.54933 3.55556 8C3.55556 10.4507 5.54933 12.4444 8 12.4444C10.4507 12.4444 12.4444 10.4507 12.4444 8C12.4444 5.54933 10.4507 3.55556 8 3.55556ZM8 5.33333C9.47022 5.33333 10.6667 6.52978 10.6667 8C10.6667 9.47022 9.47022 10.6667 8 10.6667C6.52978 10.6667 5.33333 9.47022 5.33333 8C5.33333 6.52978 6.52978 5.33333 8 5.33333Z" fill="#5C8EE6"/>
</symbol><symbol viewBox="0 0 20 12" fill="none" id="vk" xmlns="http://www.w3.org/2000/svg">
<path d="M19.4439 10.7569C18.6455 9.32 16.5889 7.59347 15.7398 6.84216C15.5074 6.63646 15.4826 6.28057 15.694 6.05309C17.3144 4.3119 18.6104 2.31123 19.0565 1.1023C19.2533 0.568255 18.8459 0.00399859 18.2719 0.00399859H16.6044C16.0548 0.00399859 15.7331 0.201266 15.5799 0.515384C14.2332 3.27491 13.078 4.46918 12.2694 5.16717C11.8167 5.55815 11.1107 5.23426 11.1107 4.63934C11.1107 3.49306 11.1107 2.01133 11.1107 0.960569C11.1107 0.450961 10.6939 0.0386537 10.1799 0.0386537L7.13379 0.00399859C6.75036 0.00399859 6.53132 0.438076 6.76147 0.742419L7.26441 1.4644C7.45368 1.71454 7.55587 2.01888 7.55587 2.33122L7.55321 5.58258C7.55321 6.14817 6.86766 6.42453 6.46068 6.02821C5.08381 4.68733 3.88909 1.94913 3.45901 0.639787C3.33461 0.260802 2.97962 0.00488718 2.57709 0.00399859L0.934523 0C0.318283 0 -0.132233 0.58425 0.0352665 1.1725C1.5361 6.44052 4.61552 11.4522 10.1035 11.9956C10.6442 12.0489 11.1107 11.6135 11.1107 11.0745V9.36577C11.1107 8.87571 11.495 8.45452 11.9891 8.44207C12.0064 8.44163 12.0237 8.44163 12.041 8.44163C13.4926 8.44163 15.1182 10.5543 15.6869 11.5424C15.8504 11.8267 16.1561 12 16.4867 12H18.6962C19.3408 12 19.7545 11.3162 19.4439 10.7569Z" fill="#5C8EE6"/>
</symbol></svg>